<svg xmlns="http://www.w3.org/2000/svg" xmlns:xlink="http://www.w3.org/1999/xlink" version="1.1" width="819" height="591.7" viewBox="14.9 43.9 819 591.7"><g><g transform="translate(78,420)"><g><g>
<g stroke="#000000" stroke-dasharray="none" fill="#FFFFFF">
    <polygon points="45.1,0 722,0 676.9,164 0,164"/>
</g>
<rect x="59.3" y="13.2" fill="none" width="597.5" height="137.6"/>
<circle fill="none" cx="369.2" cy="0" r="0.1"/>
<circle fill="none" cx="604.2" cy="0.4" r="0.1"/>
<circle fill="none" cx="716.1" cy="23.2" r="0.1"/>
<circle fill="none" cx="699.8" cy="74.8" r="0.1"/>
<circle fill="none" cx="682.5" cy="133.5" r="0.1"/>
<circle fill="none" cx="563.3" cy="164" r="0.1"/>
<circle fill="none" cx="330.6" cy="163.8" r="0.1"/>
<circle fill="none" cx="97.9" cy="163.6" r="0.1"/>
<circle fill="none" cx="9" cy="130.5" r="0.1"/>
<circle fill="none" cx="25.2" cy="82" r="0.1"/>
<circle fill="none" cx="37.5" cy="25.4" r="0.1"/>
<circle fill="none" cx="144.3" cy="0.2" r="0.1"/>
</g></g><rect stroke="none" stroke-width="1" fill="#FFFFFF" x="0" y="0" width="40" height="20" transform="translate(-63.1,150.4)"/><path stroke="#000000" fill="none" d="M9,130.5 C-14.2,124.2 -2.6,156.6 -25.7 150.4"/><text font-family="OpenSansCondensedLight" font-size="14pt" fill="black" transform="translate(-63.1,150.4)" text-anchor="middle"><tspan x="20" y="16.3">210</tspan></text><rect stroke-width="0" fill="none" width="597.5" height="137.6" transform="translate(59.3,13.2)"/><text font-family="OpenSansCondensedLight" font-size="14pt" fill="black" transform="translate(59.3,13.2)" text-anchor="middle"><tspan x="298.7" y="133.4">HARDWARE AND SOFTWARE</tspan></text><path stroke="#000000" fill="none" transform="translate(59.3,13.2)" d="M 0 0"/></g><g transform="translate(83,300)"><g><g>
<g stroke="#000000" stroke-dasharray="none" fill="#FFFFFF">
    <polygon points="45.1,0 722,0 676.9,140 0,140"/>
</g>
<rect x="59.3" y="11.3" fill="none" width="597.5" height="117.4"/>
<circle fill="none" cx="369.2" cy="0" r="0.1"/>
<circle fill="none" cx="604.2" cy="0.4" r="0.1"/>
<circle fill="none" cx="716.1" cy="19.8" r="0.1"/>
<circle fill="none" cx="699.8" cy="63.8" r="0.1"/>
<circle fill="none" cx="682.5" cy="113.9" r="0.1"/>
<circle fill="none" cx="563.3" cy="140" r="0.1"/>
<circle fill="none" cx="330.6" cy="139.8" r="0.1"/>
<circle fill="none" cx="97.9" cy="139.6" r="0.1"/>
<circle fill="none" cx="9" cy="111.4" r="0.1"/>
<circle fill="none" cx="25.2" cy="70" r="0.1"/>
<circle fill="none" cx="37.5" cy="21.7" r="0.1"/>
<circle fill="none" cx="144.3" cy="0.2" r="0.1"/>
</g></g><rect stroke="none" stroke-width="1" fill="#FFFFFF" x="0" y="0" width="40" height="20" transform="translate(-63.1,131.3)"/><path stroke="#000000" fill="none" d="M9,111.4 C-14.2,105.1 -2.6,137.5 -25.7 131.3"/><text font-family="OpenSansCondensedLight" font-size="14pt" fill="black" transform="translate(-63.1,131.3)" text-anchor="middle"><tspan x="20" y="16.3">206</tspan></text><rect stroke-width="0" fill="none" width="597.5" height="117.4" transform="translate(59.3,11.3)"/><text font-family="OpenSansCondensedLight" font-size="14pt" fill="black" transform="translate(59.3,11.3)" text-anchor="middle"><tspan x="298.7" y="113.2">VIRTUALIZATION</tspan></text><path stroke="#000000" fill="none" transform="translate(59.3,11.3)" d="M 0 0"/></g><g transform="translate(90,171)"><g><g>
<g stroke="#000000" stroke-dasharray="none" fill="#FFFFFF">
    <polygon points="45.1,0 722,0 676.9,140 0,140"/>
</g>
<rect x="59.3" y="11.3" fill="none" width="597.5" height="117.4"/>
<circle fill="none" cx="369.2" cy="0" r="0.1"/>
<circle fill="none" cx="604.2" cy="0.4" r="0.1"/>
<circle fill="none" cx="716.1" cy="19.8" r="0.1"/>
<circle fill="none" cx="699.8" cy="63.8" r="0.1"/>
<circle fill="none" cx="682.5" cy="113.9" r="0.1"/>
<circle fill="none" cx="563.3" cy="140" r="0.1"/>
<circle fill="none" cx="330.6" cy="139.8" r="0.1"/>
<circle fill="none" cx="97.9" cy="139.6" r="0.1"/>
<circle fill="none" cx="9" cy="111.4" r="0.1"/>
<circle fill="none" cx="25.2" cy="70" r="0.1"/>
<circle fill="none" cx="37.5" cy="21.7" r="0.1"/>
<circle fill="none" cx="144.3" cy="0.2" r="0.1"/>
</g></g><rect stroke="none" stroke-width="1" fill="#FFFFFF" x="0" y="0" width="40" height="20" transform="translate(-63.1,131.3)"/><path stroke="#000000" fill="none" d="M9,111.4 C-14.2,105.1 -2.6,137.5 -25.7 131.3"/><text font-family="OpenSansCondensedLight" font-size="14pt" fill="black" transform="translate(-63.1,131.3)" text-anchor="middle"><tspan x="20" y="16.3">204</tspan></text><rect stroke-width="0" fill="none" width="597.5" height="117.4" transform="translate(59.3,11.3)"/><text font-family="OpenSansCondensedLight" font-size="14pt" fill="black" transform="translate(59.3,11.3)" text-anchor="middle"><tspan x="298.7" y="113.2">MANAGEMENT</tspan></text><path stroke="#000000" fill="none" transform="translate(59.3,11.3)" d="M 0 0"/></g><g transform="translate(97,44)"><g><g>
<g stroke="#000000" stroke-dasharray="none" fill="#FFFFFF">
    <polygon points="45.1,0 722,0 676.9,140 0,140"/>
</g>
<rect x="59.3" y="11.3" fill="none" width="597.5" height="117.4"/>
<circle fill="none" cx="369.2" cy="0" r="0.1"/>
<circle fill="none" cx="604.2" cy="0.4" r="0.1"/>
<circle fill="none" cx="716.1" cy="19.8" r="0.1"/>
<circle fill="none" cx="699.8" cy="63.8" r="0.1"/>
<circle fill="none" cx="682.5" cy="113.9" r="0.1"/>
<circle fill="none" cx="563.3" cy="140" r="0.1"/>
<circle fill="none" cx="330.6" cy="139.8" r="0.1"/>
<circle fill="none" cx="97.9" cy="139.6" r="0.1"/>
<circle fill="none" cx="9" cy="111.4" r="0.1"/>
<circle fill="none" cx="25.2" cy="70" r="0.1"/>
<circle fill="none" cx="37.5" cy="21.7" r="0.1"/>
<circle fill="none" cx="144.3" cy="0.2" r="0.1"/>
</g></g><rect stroke="none" stroke-width="1" fill="#FFFFFF" x="0" y="0" width="40" height="20" transform="translate(-63.1,131.3)"/><path stroke="#000000" fill="none" d="M9,111.4 C-14.2,105.1 -2.6,137.5 -25.7 131.3"/><text font-family="OpenSansCondensedLight" font-size="14pt" fill="black" transform="translate(-63.1,131.3)" text-anchor="middle"><tspan x="20" y="16.3">202</tspan></text><rect stroke-width="0" fill="none" width="597.5" height="117.4" transform="translate(59.3,11.3)"/><text font-family="OpenSansCondensedLight" font-size="14pt" fill="black" transform="translate(59.3,11.3)" text-anchor="middle"><tspan x="298.7" y="113.2">WORKLOADS</tspan></text><path stroke="#000000" fill="none" transform="translate(59.3,11.3)" d="M 0 0"/></g><g transform="translate(153,51)"><g><g>
<g stroke="#000000" stroke-dasharray="none" fill="#FFFFFF">
    <polygon points="4.9,0 79,0 74.1,98 0,98"/>
</g>
<rect x="6.5" y="7.9" fill="none" width="65.4" height="82.2"/>
<circle fill="none" cx="40.4" cy="0" r="0.1"/>
<circle fill="none" cx="66.1" cy="0.3" r="0.1"/>
<circle fill="none" cx="78.4" cy="13.9" r="0.1"/>
<circle fill="none" cx="76.6" cy="44.7" r="0.1"/>
<circle fill="none" cx="74.7" cy="79.8" r="0.1"/>
<circle fill="none" cx="61.6" cy="98" r="0.1"/>
<circle fill="none" cx="36.2" cy="97.9" r="0.1"/>
<circle fill="none" cx="10.7" cy="97.7" r="0.1"/>
<circle fill="none" cx="1" cy="78" r="0.1"/>
<circle fill="none" cx="2.8" cy="49" r="0.1"/>
<circle fill="none" cx="4.1" cy="15.2" r="0.1"/>
<circle fill="none" cx="15.8" cy="0.1" r="0.1"/>
</g></g><rect stroke="none" stroke-width="0" fill="#FFFFFF" x="0" y="0" width="0" height="0" transform="translate(76.5,44.6)"/><path stroke="#000000" fill="none" d=""/><text font-family="OpenSansCondensedLight" font-size="14pt" fill="black" transform="translate(76.5,44.6)"/><rect stroke-width="0" fill="none" width="65.4" height="82.2" transform="translate(6.5,7.9)"/><text font-family="OpenSansCondensedLight" font-size="14pt" fill="black" transform="translate(6.5,7.9)" text-anchor="middle"><tspan x="32.7" y="47.4"> 208</tspan></text><path stroke="#000000" fill="none" transform="translate(6.5,7.9)" d="M 18.7 49 46.7 49"/></g><g transform="translate(349,51)"><g><g>
<g stroke="#000000" stroke-dasharray="none" fill="#FFFFFF">
    <polygon points="4.9,0 79,0 74.1,98 0,98"/>
</g>
<rect x="6.5" y="7.9" fill="none" width="65.4" height="82.2"/>
<circle fill="none" cx="40.4" cy="0" r="0.1"/>
<circle fill="none" cx="66.1" cy="0.3" r="0.1"/>
<circle fill="none" cx="78.4" cy="13.9" r="0.1"/>
<circle fill="none" cx="76.6" cy="44.7" r="0.1"/>
<circle fill="none" cx="74.7" cy="79.8" r="0.1"/>
<circle fill="none" cx="61.6" cy="98" r="0.1"/>
<circle fill="none" cx="36.2" cy="97.9" r="0.1"/>
<circle fill="none" cx="10.7" cy="97.7" r="0.1"/>
<circle fill="none" cx="1" cy="78" r="0.1"/>
<circle fill="none" cx="2.8" cy="49" r="0.1"/>
<circle fill="none" cx="4.1" cy="15.2" r="0.1"/>
<circle fill="none" cx="15.8" cy="0.1" r="0.1"/>
</g></g><rect stroke="none" stroke-width="0" fill="#FFFFFF" x="0" y="0" width="0" height="0" transform="translate(76.5,44.6)"/><path stroke="#000000" fill="none" d=""/><text font-family="OpenSansCondensedLight" font-size="14pt" fill="black" transform="translate(76.5,44.6)"/><rect stroke-width="0" fill="none" width="65.4" height="82.2" transform="translate(6.5,7.9)"/><text font-family="OpenSansCondensedLight" font-size="14pt" fill="black" transform="translate(6.5,7.9)" text-anchor="middle"><tspan x="32.7" y="47.4"> 224</tspan></text><path stroke="#000000" fill="none" transform="translate(6.5,7.9)" d="M 18.7 49 46.7 49"/></g><g transform="translate(251,51)"><g><g>
<g stroke="#000000" stroke-dasharray="none" fill="#FFFFFF">
    <polygon points="4.9,0 79,0 74.1,98 0,98"/>
</g>
<rect x="6.5" y="7.9" fill="none" width="65.4" height="82.2"/>
<circle fill="none" cx="40.4" cy="0" r="0.1"/>
<circle fill="none" cx="66.1" cy="0.3" r="0.1"/>
<circle fill="none" cx="78.4" cy="13.9" r="0.1"/>
<circle fill="none" cx="76.6" cy="44.7" r="0.1"/>
<circle fill="none" cx="74.7" cy="79.8" r="0.1"/>
<circle fill="none" cx="61.6" cy="98" r="0.1"/>
<circle fill="none" cx="36.2" cy="97.9" r="0.1"/>
<circle fill="none" cx="10.7" cy="97.7" r="0.1"/>
<circle fill="none" cx="1" cy="78" r="0.1"/>
<circle fill="none" cx="2.8" cy="49" r="0.1"/>
<circle fill="none" cx="4.1" cy="15.2" r="0.1"/>
<circle fill="none" cx="15.8" cy="0.1" r="0.1"/>
</g></g><rect stroke="none" stroke-width="0" fill="#FFFFFF" x="0" y="0" width="0" height="0" transform="translate(76.5,44.6)"/><path stroke="#000000" fill="none" d=""/><text font-family="OpenSansCondensedLight" font-size="14pt" fill="black" transform="translate(76.5,44.6)"/><rect stroke-width="0" fill="none" width="65.4" height="82.2" transform="translate(6.5,7.9)"/><text font-family="OpenSansCondensedLight" font-size="14pt" fill="black" transform="translate(6.5,7.9)" text-anchor="middle"><tspan x="32.7" y="47.4"> 220</tspan></text><path stroke="#000000" fill="none" transform="translate(6.5,7.9)" d="M 18.7 49 46.7 49"/></g><g transform="translate(220,193)"><g><g>
<g stroke="#000000" stroke-dasharray="none" fill="#FFFFFF">
    <polygon points="4.9,0 79,0 74.1,79 0,79"/>
</g>
<rect x="6.5" y="6.4" fill="none" width="65.4" height="66.3"/>
<circle fill="none" cx="40.4" cy="0" r="0.1"/>
<circle fill="none" cx="66.1" cy="0.2" r="0.1"/>
<circle fill="none" cx="78.4" cy="11.2" r="0.1"/>
<circle fill="none" cx="76.6" cy="36" r="0.1"/>
<circle fill="none" cx="74.7" cy="64.3" r="0.1"/>
<circle fill="none" cx="61.6" cy="79" r="0.1"/>
<circle fill="none" cx="36.2" cy="78.9" r="0.1"/>
<circle fill="none" cx="10.7" cy="78.8" r="0.1"/>
<circle fill="none" cx="1" cy="62.8" r="0.1"/>
<circle fill="none" cx="2.8" cy="39.5" r="0.1"/>
<circle fill="none" cx="4.1" cy="12.2" r="0.1"/>
<circle fill="none" cx="15.8" cy="0.1" r="0.1"/>
</g></g><rect stroke="none" stroke-width="0" fill="#FFFFFF" x="0" y="0" width="0" height="0" transform="translate(76.5,35.9)"/><path stroke="#000000" fill="none" d=""/><text font-family="OpenSansCondensedLight" font-size="14pt" fill="black" transform="translate(76.5,35.9)"/><rect stroke-width="0" fill="none" width="65.4" height="66.3" transform="translate(6.5,6.4)"/><text font-family="OpenSansCondensedLight" font-size="14pt" fill="black" transform="translate(6.5,6.4)" text-anchor="middle"><tspan x="32.7" y="39.4"> 212</tspan></text><path stroke="#000000" fill="none" transform="translate(6.5,6.4)" d="M 18.7 42 46.7 42"/></g><g transform="translate(658,52)"><g><g>
<g stroke="#000000" stroke-dasharray="none" fill="#FFFFFF">
    <polygon points="4.9,0 79,0 74.1,98 0,98"/>
</g>
<rect x="6.5" y="7.9" fill="none" width="65.4" height="82.2"/>
<circle fill="none" cx="40.4" cy="0" r="0.1"/>
<circle fill="none" cx="66.1" cy="0.3" r="0.1"/>
<circle fill="none" cx="78.4" cy="13.9" r="0.1"/>
<circle fill="none" cx="76.6" cy="44.7" r="0.1"/>
<circle fill="none" cx="74.7" cy="79.8" r="0.1"/>
<circle fill="none" cx="61.6" cy="98" r="0.1"/>
<circle fill="none" cx="36.2" cy="97.9" r="0.1"/>
<circle fill="none" cx="10.7" cy="97.7" r="0.1"/>
<circle fill="none" cx="1" cy="78" r="0.1"/>
<circle fill="none" cx="2.8" cy="49" r="0.1"/>
<circle fill="none" cx="4.1" cy="15.2" r="0.1"/>
<circle fill="none" cx="15.8" cy="0.1" r="0.1"/>
</g></g><rect stroke="none" stroke-width="0" fill="#FFFFFF" x="0" y="0" width="0" height="0" transform="translate(76.5,44.6)"/><path stroke="#000000" fill="none" d=""/><text font-family="OpenSansCondensedLight" font-size="14pt" fill="black" transform="translate(76.5,44.6)"/><rect stroke-width="0" fill="none" width="65.4" height="82.2" transform="translate(6.5,7.9)"/><text font-family="OpenSansCondensedLight" font-size="14pt" fill="black" transform="translate(6.5,7.9)" text-anchor="middle"><tspan x="32.7" y="47.4"> 232</tspan></text><path stroke="#000000" fill="none" transform="translate(6.5,7.9)" d="M 18.7 49 46.7 49"/></g><g transform="translate(558,52)"><g><g>
<g stroke="#000000" stroke-dasharray="none" fill="#FFFFFF">
    <polygon points="4.9,0 79,0 74.1,98 0,98"/>
</g>
<rect x="6.5" y="7.9" fill="none" width="65.4" height="82.2"/>
<circle fill="none" cx="40.4" cy="0" r="0.1"/>
<circle fill="none" cx="66.1" cy="0.3" r="0.1"/>
<circle fill="none" cx="78.4" cy="13.9" r="0.1"/>
<circle fill="none" cx="76.6" cy="44.7" r="0.1"/>
<circle fill="none" cx="74.7" cy="79.8" r="0.1"/>
<circle fill="none" cx="61.6" cy="98" r="0.1"/>
<circle fill="none" cx="36.2" cy="97.9" r="0.1"/>
<circle fill="none" cx="10.7" cy="97.7" r="0.1"/>
<circle fill="none" cx="1" cy="78" r="0.1"/>
<circle fill="none" cx="2.8" cy="49" r="0.1"/>
<circle fill="none" cx="4.1" cy="15.2" r="0.1"/>
<circle fill="none" cx="15.8" cy="0.1" r="0.1"/>
</g></g><rect stroke="none" stroke-width="0" fill="#FFFFFF" x="0" y="0" width="0" height="0" transform="translate(76.5,44.6)"/><path stroke="#000000" fill="none" d=""/><text font-family="OpenSansCondensedLight" font-size="14pt" fill="black" transform="translate(76.5,44.6)"/><rect stroke-width="0" fill="none" width="65.4" height="82.2" transform="translate(6.5,7.9)"/><text font-family="OpenSansCondensedLight" font-size="14pt" fill="black" transform="translate(6.5,7.9)" text-anchor="middle"><tspan x="32.7" y="47.4"> 230</tspan></text><path stroke="#000000" fill="none" transform="translate(6.5,7.9)" d="M 18.7 49 46.7 49"/></g><g transform="translate(460,52)"><g><g>
<g stroke="#000000" stroke-dasharray="none" fill="#FFFFFF">
    <polygon points="4.9,0 79,0 74.1,98 0,98"/>
</g>
<rect x="6.5" y="7.9" fill="none" width="65.4" height="82.2"/>
<circle fill="none" cx="40.4" cy="0" r="0.1"/>
<circle fill="none" cx="66.1" cy="0.3" r="0.1"/>
<circle fill="none" cx="78.4" cy="13.9" r="0.1"/>
<circle fill="none" cx="76.6" cy="44.7" r="0.1"/>
<circle fill="none" cx="74.7" cy="79.8" r="0.1"/>
<circle fill="none" cx="61.6" cy="98" r="0.1"/>
<circle fill="none" cx="36.2" cy="97.9" r="0.1"/>
<circle fill="none" cx="10.7" cy="97.7" r="0.1"/>
<circle fill="none" cx="1" cy="78" r="0.1"/>
<circle fill="none" cx="2.8" cy="49" r="0.1"/>
<circle fill="none" cx="4.1" cy="15.2" r="0.1"/>
<circle fill="none" cx="15.8" cy="0.1" r="0.1"/>
</g></g><rect stroke="none" stroke-width="0" fill="#FFFFFF" x="0" y="0" width="0" height="0" transform="translate(76.5,44.6)"/><path stroke="#000000" fill="none" d=""/><text font-family="OpenSansCondensedLight" font-size="14pt" fill="black" transform="translate(76.5,44.6)"/><rect stroke-width="0" fill="none" width="65.4" height="82.2" transform="translate(6.5,7.9)"/><text font-family="OpenSansCondensedLight" font-size="14pt" fill="black" transform="translate(6.5,7.9)" text-anchor="middle"><tspan x="32.7" y="47.4"> 228</tspan></text><path stroke="#000000" fill="none" transform="translate(6.5,7.9)" d="M 18.7 49 46.7 49"/></g><g transform="translate(416,193)"><g><g>
<g stroke="#000000" stroke-dasharray="none" fill="#FFFFFF">
    <polygon points="4.9,0 79,0 74.1,79 0,79"/>
</g>
<rect x="6.5" y="6.4" fill="none" width="65.4" height="66.3"/>
<circle fill="none" cx="40.4" cy="0" r="0.1"/>
<circle fill="none" cx="66.1" cy="0.2" r="0.1"/>
<circle fill="none" cx="78.4" cy="11.2" r="0.1"/>
<circle fill="none" cx="76.6" cy="36" r="0.1"/>
<circle fill="none" cx="74.7" cy="64.3" r="0.1"/>
<circle fill="none" cx="61.6" cy="79" r="0.1"/>
<circle fill="none" cx="36.2" cy="78.9" r="0.1"/>
<circle fill="none" cx="10.7" cy="78.8" r="0.1"/>
<circle fill="none" cx="1" cy="62.8" r="0.1"/>
<circle fill="none" cx="2.8" cy="39.5" r="0.1"/>
<circle fill="none" cx="4.1" cy="12.2" r="0.1"/>
<circle fill="none" cx="15.8" cy="0.1" r="0.1"/>
</g></g><rect stroke="none" stroke-width="0" fill="#FFFFFF" x="0" y="0" width="0" height="0" transform="translate(76.5,35.9)"/><path stroke="#000000" fill="none" d=""/><text font-family="OpenSansCondensedLight" font-size="14pt" fill="black" transform="translate(76.5,35.9)"/><rect stroke-width="0" fill="none" width="65.4" height="66.3" transform="translate(6.5,6.4)"/><text font-family="OpenSansCondensedLight" font-size="14pt" fill="black" transform="translate(6.5,6.4)" text-anchor="middle"><tspan x="32.7" y="39.4"> 216</tspan></text><path stroke="#000000" fill="none" transform="translate(6.5,6.4)" d="M 18.7 42 46.7 42"/></g><g transform="translate(318,193)"><g><g>
<g stroke="#000000" stroke-dasharray="none" fill="#FFFFFF">
    <polygon points="4.9,0 79,0 74.1,79 0,79"/>
</g>
<rect x="6.5" y="6.4" fill="none" width="65.4" height="66.3"/>
<circle fill="none" cx="40.4" cy="0" r="0.1"/>
<circle fill="none" cx="66.1" cy="0.2" r="0.1"/>
<circle fill="none" cx="78.4" cy="11.2" r="0.1"/>
<circle fill="none" cx="76.6" cy="36" r="0.1"/>
<circle fill="none" cx="74.7" cy="64.3" r="0.1"/>
<circle fill="none" cx="61.6" cy="79" r="0.1"/>
<circle fill="none" cx="36.2" cy="78.9" r="0.1"/>
<circle fill="none" cx="10.7" cy="78.8" r="0.1"/>
<circle fill="none" cx="1" cy="62.8" r="0.1"/>
<circle fill="none" cx="2.8" cy="39.5" r="0.1"/>
<circle fill="none" cx="4.1" cy="12.2" r="0.1"/>
<circle fill="none" cx="15.8" cy="0.1" r="0.1"/>
</g></g><rect stroke="none" stroke-width="0" fill="#FFFFFF" x="0" y="0" width="0" height="0" transform="translate(76.5,35.9)"/><path stroke="#000000" fill="none" d=""/><text font-family="OpenSansCondensedLight" font-size="14pt" fill="black" transform="translate(76.5,35.9)"/><rect stroke-width="0" fill="none" width="65.4" height="66.3" transform="translate(6.5,6.4)"/><text font-family="OpenSansCondensedLight" font-size="14pt" fill="black" transform="translate(6.5,6.4)" text-anchor="middle"><tspan x="32.7" y="39.4"> 214</tspan></text><path stroke="#000000" fill="none" transform="translate(6.5,6.4)" d="M 18.7 42 46.7 42"/></g><g transform="translate(625,194)"><g><g>
<g stroke="#000000" stroke-dasharray="none" fill="#FFFFFF">
    <polygon points="4.9,0 79,0 74.1,79 0,79"/>
</g>
<rect x="6.5" y="6.4" fill="none" width="65.4" height="66.3"/>
<circle fill="none" cx="40.4" cy="0" r="0.1"/>
<circle fill="none" cx="66.1" cy="0.2" r="0.1"/>
<circle fill="none" cx="78.4" cy="11.2" r="0.1"/>
<circle fill="none" cx="76.6" cy="36" r="0.1"/>
<circle fill="none" cx="74.7" cy="64.3" r="0.1"/>
<circle fill="none" cx="61.6" cy="79" r="0.1"/>
<circle fill="none" cx="36.2" cy="78.9" r="0.1"/>
<circle fill="none" cx="10.7" cy="78.8" r="0.1"/>
<circle fill="none" cx="1" cy="62.8" r="0.1"/>
<circle fill="none" cx="2.8" cy="39.5" r="0.1"/>
<circle fill="none" cx="4.1" cy="12.2" r="0.1"/>
<circle fill="none" cx="15.8" cy="0.1" r="0.1"/>
</g></g><rect stroke="none" stroke-width="0" fill="#FFFFFF" x="0" y="0" width="0" height="0" transform="translate(76.5,35.9)"/><path stroke="#000000" fill="none" d=""/><text font-family="OpenSansCondensedLight" font-size="14pt" fill="black" transform="translate(76.5,35.9)"/><rect stroke-width="0" fill="none" width="65.4" height="66.3" transform="translate(6.5,6.4)"/><text font-family="OpenSansCondensedLight" font-size="14pt" fill="black" transform="translate(6.5,6.4)" text-anchor="middle"><tspan x="32.7" y="39.4"> 222</tspan></text><path stroke="#000000" fill="none" transform="translate(6.5,6.4)" d="M 18.7 42 46.7 42"/></g><g transform="translate(521,194)"><g><g>
<g stroke="#000000" stroke-dasharray="none" fill="#FFFFFF">
    <polygon points="4.9,0 79,0 74.1,79 0,79"/>
</g>
<rect x="6.5" y="6.4" fill="none" width="65.4" height="66.3"/>
<circle fill="none" cx="40.4" cy="0" r="0.1"/>
<circle fill="none" cx="66.1" cy="0.2" r="0.1"/>
<circle fill="none" cx="78.4" cy="11.2" r="0.1"/>
<circle fill="none" cx="76.6" cy="36" r="0.1"/>
<circle fill="none" cx="74.7" cy="64.3" r="0.1"/>
<circle fill="none" cx="61.6" cy="79" r="0.1"/>
<circle fill="none" cx="36.2" cy="78.9" r="0.1"/>
<circle fill="none" cx="10.7" cy="78.8" r="0.1"/>
<circle fill="none" cx="1" cy="62.8" r="0.1"/>
<circle fill="none" cx="2.8" cy="39.5" r="0.1"/>
<circle fill="none" cx="4.1" cy="12.2" r="0.1"/>
<circle fill="none" cx="15.8" cy="0.1" r="0.1"/>
</g></g><rect stroke="none" stroke-width="0" fill="#FFFFFF" x="0" y="0" width="0" height="0" transform="translate(76.5,35.9)"/><path stroke="#000000" fill="none" d=""/><text font-family="OpenSansCondensedLight" font-size="14pt" fill="black" transform="translate(76.5,35.9)"/><rect stroke-width="0" fill="none" width="65.4" height="66.3" transform="translate(6.5,6.4)"/><text font-family="OpenSansCondensedLight" font-size="14pt" fill="black" transform="translate(6.5,6.4)" text-anchor="middle"><tspan x="32.7" y="39.4"> 218</tspan></text><path stroke="#000000" fill="none" transform="translate(6.5,6.4)" d="M 18.7 42 46.7 42"/></g><g transform="translate(135,332)"><g><g>
<g fill="#FFFFFF">
    <path d="M108.4,70.2h-5.4c0.1,-0.1,-0,5.3,-0,5.3H0.1V10.4c0,0,5.5,-0.2,5.4,-0.1V5.1h5.1V0h102.8v65.1h-5.1"/>
</g>
<g stroke="#000000" stroke-dasharray="none">
    <path fill="none" d="M10.6,5.1V0h102.8v65.1h-5.1"/>
    <path fill="none" d="M5.5,10.3V5.1h102.8v65.1h-5.4"/>
    <path fill="none" d="M0.1,10.4h102.8v65.1H0.1V10.4z"/>
</g>
<rect x="3.4" y="13.7" fill="none" width="96.3" height="58.3"/>
<circle fill="none" cx="58.5" cy="0.1" r="0.1"/>
<circle fill="none" cx="93.2" cy="0.1" r="0.1"/>
<circle fill="none" cx="113.4" cy="6.1" r="0.1"/>
<circle fill="none" cx="113.4" cy="29.2" r="0.1"/>
<circle fill="none" cx="113.4" cy="60.8" r="0.1"/>
<circle fill="none" cx="89.2" cy="75.6" r="0.1"/>
<circle fill="none" cx="48.3" cy="75.4" r="0.1"/>
<circle fill="none" cx="12.3" cy="75.4" r="0.1"/>
<circle fill="none" cx="0.3" cy="65.9" r="0.1"/>
<circle fill="none" cx="0.3" cy="41.2" r="0.1"/>
<circle fill="none" cx="0.1" cy="21.4" r="0.1"/>
<circle fill="none" cx="24.2" cy="0.1" r="0.1"/>
</g></g><rect stroke="none" stroke-width="0" fill="#FFFFFF" x="0" y="0" width="0" height="0" transform="translate(113.3,29.1)"/><path stroke="#000000" fill="none" d=""/><text font-family="OpenSansCondensedLight" font-size="14pt" fill="black" transform="translate(113.3,29.1)"/><rect stroke-width="0" fill="none" width="96.3" height="58.3" transform="translate(3.4,13.7)"/><text font-family="OpenSansCondensedLight" font-size="14pt" fill="black" transform="translate(3.4,13.7)" text-anchor="middle"><tspan x="48.2" y="54.1"> 226</tspan></text><path stroke="#000000" fill="none" transform="translate(3.4,13.7)" d="M 34.2 56 62.2 56"/></g><g transform="translate(280,329)"><g><g>
<g stroke="#000000" stroke-dasharray="none" fill="#FFFFFF">
    <path d="M58.9,9.9H0v40.2c0,5.4,13.2,9.9,29.5,9.9s29.5,-4.5,29.5,-9.9v-40.2L58.9,9.9L58.9,9.9z"/>
    <path d="M29.5,0C13.2,0,0,4.5,0,9.9s13.2,9.9,29.5,9.9s29.5,-4.5,29.5,-9.9C58.9,4.5,45.7,0,29.5,0L29.5,0z"/>
</g>
<rect x="3.1" y="21.9" width="52.6" height="28.5" fill="none"/>
<circle fill="none" cx="29.5" cy="0" r="0.1"/>
<circle fill="none" cx="45" cy="1.5" r="0.1"/>
<circle fill="none" cx="59" cy="9.9" r="0.1"/>
<circle fill="none" cx="59" cy="30" r="0.1"/>
<circle fill="none" cx="59" cy="50.1" r="0.1"/>
<circle fill="none" cx="45.8" cy="58.3" r="0.1"/>
<circle fill="none" cx="29.5" cy="60" r="0.1"/>
<circle fill="none" cx="12.4" cy="58.1" r="0.1"/>
<circle fill="none" cx="0" cy="50.1" r="0.1"/>
<circle fill="none" cx="0" cy="30" r="0.1"/>
<circle fill="none" cx="0" cy="9.9" r="0.1"/>
<circle fill="none" cx="13.9" cy="1.5" r="0.1"/>
</g></g><rect stroke="none" stroke-width="0" fill="#FFFFFF" x="0" y="0" width="0" height="0" transform="translate(58.9,29.9)"/><path stroke="#000000" fill="none" d=""/><text font-family="OpenSansCondensedLight" font-size="14pt" fill="black" transform="translate(58.9,29.9)"/><rect stroke-width="0" fill="none" width="52.6" height="28.5" transform="translate(3.1,21.9)"/><text font-family="OpenSansCondensedLight" font-size="14pt" fill="black" transform="translate(3.1,21.9)" text-anchor="middle"><tspan x="26.3" y="24.3"> 234</tspan></text><path stroke="#000000" fill="none" transform="translate(3.1,21.9)" d="M 12.3 26 40.3 26"/></g><g transform="translate(341,342)"><g><g>
<g stroke="#000000" stroke-dasharray="none" fill="#FFFFFF">
    <path d="M30.8,6.1H0v25c0,3.4,6.9,6.1,15.5,6.1s15.5,-2.8,15.5,-6.1v-25L30.8,6.1L30.8,6.1z"/>
    <path d="M15.5,0C6.9,0,0,2.8,0,6.1s6.9,6.1,15.5,6.1s15.5,-2.8,15.5,-6.1C30.8,2.8,23.9,0,15.5,0L15.5,0z"/>
</g>
<rect x="1.6" y="13.6" width="27.6" height="17.7" fill="none"/>
<circle fill="none" cx="15.5" cy="0" r="0.1"/>
<circle fill="none" cx="23.6" cy="0.9" r="0.1"/>
<circle fill="none" cx="30.9" cy="6.1" r="0.1"/>
<circle fill="none" cx="30.9" cy="18.6" r="0.1"/>
<circle fill="none" cx="30.9" cy="31.2" r="0.1"/>
<circle fill="none" cx="24" cy="36.3" r="0.1"/>
<circle fill="none" cx="15.5" cy="37.3" r="0.1"/>
<circle fill="none" cx="6.5" cy="36.1" r="0.1"/>
<circle fill="none" cx="0" cy="31.2" r="0.1"/>
<circle fill="none" cx="0" cy="18.6" r="0.1"/>
<circle fill="none" cx="0" cy="6.1" r="0.1"/>
<circle fill="none" cx="7.3" cy="0.9" r="0.1"/>
</g></g><rect stroke="none" stroke-width="0" fill="#FFFFFF" x="0" y="0" width="0" height="0" transform="translate(30.8,18.5)"/><path stroke="#000000" fill="none" d=""/><text font-family="OpenSansCondensedLight" font-size="14pt" fill="black" transform="translate(30.8,18.5)"/><rect stroke-width="0" fill="none" width="27.6" height="17.7" transform="translate(1.6,13.6)"/><text font-family="OpenSansCondensedLight" font-size="14pt" fill="black" transform="translate(1.6,13.6)" text-anchor="middle"><tspan x="13.8" y="13.5"> </tspan></text><path stroke="#000000" fill="none" transform="translate(1.6,13.6)" d="M 0 0"/></g><g transform="translate(464,461)"><g><g>
<g stroke="#000000" stroke-dasharray="none" fill="#FFFFFF">
    <path d="M58.9,9.9H0v40.2c0,5.4,13.2,9.9,29.5,9.9s29.5,-4.5,29.5,-9.9v-40.2L58.9,9.9L58.9,9.9z"/>
    <path d="M29.5,0C13.2,0,0,4.5,0,9.9s13.2,9.9,29.5,9.9s29.5,-4.5,29.5,-9.9C58.9,4.5,45.7,0,29.5,0L29.5,0z"/>
</g>
<rect x="3.1" y="21.9" width="52.6" height="28.5" fill="none"/>
<circle fill="none" cx="29.5" cy="0" r="0.1"/>
<circle fill="none" cx="45" cy="1.5" r="0.1"/>
<circle fill="none" cx="59" cy="9.9" r="0.1"/>
<circle fill="none" cx="59" cy="30" r="0.1"/>
<circle fill="none" cx="59" cy="50.1" r="0.1"/>
<circle fill="none" cx="45.8" cy="58.3" r="0.1"/>
<circle fill="none" cx="29.5" cy="60" r="0.1"/>
<circle fill="none" cx="12.4" cy="58.1" r="0.1"/>
<circle fill="none" cx="0" cy="50.1" r="0.1"/>
<circle fill="none" cx="0" cy="30" r="0.1"/>
<circle fill="none" cx="0" cy="9.9" r="0.1"/>
<circle fill="none" cx="13.9" cy="1.5" r="0.1"/>
</g></g><rect stroke="none" stroke-width="0" fill="#FFFFFF" x="0" y="0" width="0" height="0" transform="translate(58.9,29.9)"/><path stroke="#000000" fill="none" d=""/><text font-family="OpenSansCondensedLight" font-size="14pt" fill="black" transform="translate(58.9,29.9)"/><rect stroke-width="0" fill="none" width="52.6" height="28.5" transform="translate(3.1,21.9)"/><text font-family="OpenSansCondensedLight" font-size="14pt" fill="black" transform="translate(3.1,21.9)" text-anchor="middle"><tspan x="26.3" y="24.3"> 250</tspan></text><path stroke="#000000" fill="none" transform="translate(3.1,21.9)" d="M 12.3 26 40.3 26"/></g><g transform="translate(331,378)"><g><g>
<g stroke="#000000" stroke-dasharray="none" fill="#FFFFFF">
    <path d="M19,5.6H0v22.8c0,3.1,4.2,5.6,9.5,5.6s9.5,-2.5,9.5,-5.6v-22.8L19,5.6L19,5.6z"/>
    <path d="M9.5,0C4.2,0,0,2.5,0,5.6s4.2,5.6,9.5,5.6s9.5,-2.5,9.5,-5.6C19,2.5,14.7,0,9.5,0L9.5,0z"/>
</g>
<rect x="1" y="12.4" width="16.9" height="16.1" fill="none"/>
<circle fill="none" cx="9.5" cy="0" r="0.1"/>
<circle fill="none" cx="14.5" cy="0.9" r="0.1"/>
<circle fill="none" cx="19" cy="5.6" r="0.1"/>
<circle fill="none" cx="19" cy="17" r="0.1"/>
<circle fill="none" cx="19" cy="28.4" r="0.1"/>
<circle fill="none" cx="14.7" cy="33.1" r="0.1"/>
<circle fill="none" cx="9.5" cy="34" r="0.1"/>
<circle fill="none" cx="4" cy="32.9" r="0.1"/>
<circle fill="none" cx="0" cy="28.4" r="0.1"/>
<circle fill="none" cx="0" cy="17" r="0.1"/>
<circle fill="none" cx="0" cy="5.6" r="0.1"/>
<circle fill="none" cx="4.5" cy="0.9" r="0.1"/>
</g></g><rect stroke="none" stroke-width="0" fill="#FFFFFF" x="0" y="0" width="0" height="0" transform="translate(18.9,16.9)"/><path stroke="#000000" fill="none" d=""/><text font-family="OpenSansCondensedLight" font-size="14pt" fill="black" transform="translate(18.9,16.9)"/><rect stroke-width="0" fill="none" width="16.9" height="16.1" transform="translate(1,12.4)"/><text font-family="OpenSansCondensedLight" font-size="14pt" fill="black" transform="translate(1,12.4)" text-anchor="middle"><tspan x="8.5" y="11.9"> </tspan></text><path stroke="#000000" fill="none" transform="translate(1,12.4)" d="M 0 0"/></g><g transform="translate(525,474)"><g><g>
<g stroke="#000000" stroke-dasharray="none" fill="#FFFFFF">
    <path d="M30.8,6.1H0v25c0,3.4,6.9,6.1,15.5,6.1s15.5,-2.8,15.5,-6.1v-25L30.8,6.1L30.8,6.1z"/>
    <path d="M15.5,0C6.9,0,0,2.8,0,6.1s6.9,6.1,15.5,6.1s15.5,-2.8,15.5,-6.1C30.8,2.8,23.9,0,15.5,0L15.5,0z"/>
</g>
<rect x="1.6" y="13.6" width="27.6" height="17.7" fill="none"/>
<circle fill="none" cx="15.5" cy="0" r="0.1"/>
<circle fill="none" cx="23.6" cy="0.9" r="0.1"/>
<circle fill="none" cx="30.9" cy="6.1" r="0.1"/>
<circle fill="none" cx="30.9" cy="18.6" r="0.1"/>
<circle fill="none" cx="30.9" cy="31.2" r="0.1"/>
<circle fill="none" cx="24" cy="36.3" r="0.1"/>
<circle fill="none" cx="15.5" cy="37.3" r="0.1"/>
<circle fill="none" cx="6.5" cy="36.1" r="0.1"/>
<circle fill="none" cx="0" cy="31.2" r="0.1"/>
<circle fill="none" cx="0" cy="18.6" r="0.1"/>
<circle fill="none" cx="0" cy="6.1" r="0.1"/>
<circle fill="none" cx="7.3" cy="0.9" r="0.1"/>
</g></g><rect stroke="none" stroke-width="0" fill="#FFFFFF" x="0" y="0" width="0" height="0" transform="translate(30.8,18.5)"/><path stroke="#000000" fill="none" d=""/><text font-family="OpenSansCondensedLight" font-size="14pt" fill="black" transform="translate(30.8,18.5)"/><rect stroke-width="0" fill="none" width="27.6" height="17.7" transform="translate(1.6,13.6)"/><text font-family="OpenSansCondensedLight" font-size="14pt" fill="black" transform="translate(1.6,13.6)" text-anchor="middle"><tspan x="13.8" y="13.5"> </tspan></text><path stroke="#000000" fill="none" transform="translate(1.6,13.6)" d="M 0 0"/></g><g transform="translate(407,320)"><g><g>
<g stroke-width="0.5" stroke="#000000" stroke-dasharray="none" fill="#FFFFFF">
    <path d="M0,42.5l6,-5.3h36.1l6,5.3v12.5H0V42.5z"/>
    <path d="M2.5,44.3H45.6c0.2,0,0.5,0.2,0.5,0.4v8.1c0,0.2,-0.2,0.4,-0.5,0.4H2.5c-0.2,0,-0.5,-0.2,-0.5,-0.4v-8.1C2,44.5,2.2,44.3,2.5,44.3"/>
    <path d="M34.6,47.9c0,0.6,-1,0.6,-1,0C33.6,47.3,34.6,47.3,34.6,47.9"/>
    <path d="M39,45.3h1v7.1h-1V45.3z"/>
    <path d="M3.5,45.3h3.1c0.2,0,0.5,0.2,0.5,0.4v1.8c0,0.2,-0.2,0.4,-0.5,0.4h-3.1c-0.2,0,-0.5,-0.2,-0.5,-0.4v-1.8C3,45.4,3.2,45.3,3.5,45.3"/>
    <path d="M3.5,49.7h3.1c0.2,0,0.5,0.2,0.5,0.4v1.8c0,0.2,-0.2,0.4,-0.5,0.4h-3.1c-0.2,0,-0.5,-0.2,-0.5,-0.4v-1.8C3,49.9,3.2,49.7,3.5,49.7"/>
    <path d="M9.6,45.3h3.1c0.2,0,0.5,0.2,0.5,0.4v1.8c0,0.2,-0.2,0.4,-0.5,0.4h-3.1c-0.2,0,-0.5,-0.2,-0.5,-0.4v-1.8C9.1,45.4,9.2,45.3,9.6,45.3"/>
    <path d="M15.5,45.3h3.1c0.2,0,0.5,0.2,0.5,0.4v1.8c0,0.2,-0.2,0.4,-0.5,0.4h-3.1c-0.2,0,-0.5,-0.2,-0.5,-0.4v-1.8C15,45.4,15.3,45.3,15.5,45.3"/>
    <path d="M21.5,45.3h3.1c0.2,0,0.5,0.2,0.5,0.4v1.8c0,0.2,-0.2,0.4,-0.5,0.4h-3.1c-0.2,0,-0.5,-0.2,-0.5,-0.4v-1.8C21,45.4,21.3,45.3,21.5,45.3"/>
    <path d="M27.6,45.3h3.1c0.2,0,0.5,0.2,0.5,0.4v1.8c0,0.2,-0.2,0.4,-0.5,0.4h-3.1c-0.2,0,-0.5,-0.2,-0.5,-0.4v-1.8C27.1,45.4,27.2,45.3,27.6,45.3"/>
    <path d="M9.6,49.7h3.1c0.2,0,0.5,0.2,0.5,0.4v1.8c0,0.2,-0.2,0.4,-0.5,0.4h-3.1c-0.2,0,-0.5,-0.2,-0.5,-0.4v-1.8C9.1,49.9,9.2,49.7,9.6,49.7"/>
    <path d="M15.5,49.7h3.1c0.2,0,0.5,0.2,0.5,0.4v1.8c0,0.2,-0.2,0.4,-0.5,0.4h-3.1c-0.2,0,-0.5,-0.2,-0.5,-0.4v-1.8C15,49.9,15.3,49.7,15.5,49.7"/>
    <path d="M21.5,49.7h3.1c0.2,0,0.5,0.2,0.5,0.4v1.8c0,0.2,-0.2,0.4,-0.5,0.4h-3.1c-0.2,0,-0.5,-0.2,-0.5,-0.4v-1.8C21,49.9,21.3,49.7,21.5,49.7"/>
    <path d="M27.6,49.7h3.1c0.2,0,0.5,0.2,0.5,0.4v1.8c0,0.2,-0.2,0.4,-0.5,0.4h-3.1c-0.2,0,-0.5,-0.2,-0.5,-0.4v-1.8C27.1,49.9,27.2,49.7,27.6,49.7"/>
    <path d="M4,42.5l4,-3.5h33.1l4,3.5H4z"/>
    <path d="M34.6,46.1c0,0.6,-1,0.6,-1,0C33.6,45.5,34.6,45.5,34.6,46.1"/>
    <path d="M41,45.3h1v7.1h-1V45.3z"/>
    <path d="M43.1,45.3h1v7.1h-1V45.3z"/>
    <path d="M34.6,49.7c0,0.6,-1,0.6,-1,0C33.6,49.1,34.6,49,34.6,49.7"/>
    <path d="M34.6,51.5c0,0.6,-1,0.6,-1,0C33.6,50.9,34.6,50.9,34.6,51.5"/>
    <path d="M0,30.1l6,-5.3h36.1l6,5.3v12.5H0V30.1z"/>
    <path d="M2.5,31.9H45.6c0.2,0,0.5,0.2,0.5,0.4v8.1c0,0.2,-0.2,0.4,-0.5,0.4H2.5c-0.2,0,-0.5,-0.2,-0.5,-0.4v-8.1C2,32.1,2.2,31.9,2.5,31.9"/>
    <path d="M34.6,35.5c0,0.6,-1,0.6,-1,0C33.6,34.9,34.6,34.9,34.6,35.5"/>
    <path d="M39,32.8h1v7.1h-1V32.8z"/>
    <path d="M3.5,32.8h3.1c0.2,0,0.5,0.2,0.5,0.4v1.8c0,0.2,-0.2,0.4,-0.5,0.4h-3.1c-0.2,0,-0.5,-0.2,-0.5,-0.4v-1.8C3,33,3.2,32.8,3.5,32.8"/>
    <path d="M3.5,37.3h3.1c0.2,0,0.5,0.2,0.5,0.4v1.8c0,0.2,-0.2,0.4,-0.5,0.4h-3.1c-0.2,0,-0.5,-0.2,-0.5,-0.4V37.8C3,37.4,3.2,37.3,3.5,37.3"/>
    <path d="M9.6,32.8h3.1c0.2,0,0.5,0.2,0.5,0.4v1.8c0,0.2,-0.2,0.4,-0.5,0.4h-3.1c-0.2,0,-0.5,-0.2,-0.5,-0.4v-1.8C9.1,33,9.2,32.8,9.6,32.8"/>
    <path d="M15.5,32.8h3.1c0.2,0,0.5,0.2,0.5,0.4v1.8c0,0.2,-0.2,0.4,-0.5,0.4h-3.1c-0.2,0,-0.5,-0.2,-0.5,-0.4v-1.8C15,33,15.3,32.8,15.5,32.8"/>
    <path d="M21.5,32.8h3.1c0.2,0,0.5,0.2,0.5,0.4v1.8c0,0.2,-0.2,0.4,-0.5,0.4h-3.1c-0.2,0,-0.5,-0.2,-0.5,-0.4v-1.8C21,33,21.3,32.8,21.5,32.8"/>
    <path d="M27.6,32.8h3.1c0.2,0,0.5,0.2,0.5,0.4v1.8c0,0.2,-0.2,0.4,-0.5,0.4h-3.1c-0.2,0,-0.5,-0.2,-0.5,-0.4v-1.8C27.1,33,27.2,32.8,27.6,32.8"/>
    <path d="M9.6,37.3h3.1c0.2,0,0.5,0.2,0.5,0.4v1.8c0,0.2,-0.2,0.4,-0.5,0.4h-3.1c-0.2,0,-0.5,-0.2,-0.5,-0.4V37.8C9.1,37.4,9.2,37.3,9.6,37.3"/>
    <path d="M15.5,37.3h3.1c0.2,0,0.5,0.2,0.5,0.4v1.8c0,0.2,-0.2,0.4,-0.5,0.4h-3.1c-0.2,0,-0.5,-0.2,-0.5,-0.4V37.8C15,37.4,15.3,37.3,15.5,37.3"/>
    <path d="M21.5,37.3h3.1c0.2,0,0.5,0.2,0.5,0.4v1.8c0,0.2,-0.2,0.4,-0.5,0.4h-3.1c-0.2,0,-0.5,-0.2,-0.5,-0.4V37.8C21,37.4,21.3,37.3,21.5,37.3"/>
    <path d="M27.6,37.3h3.1c0.2,0,0.5,0.2,0.5,0.4v1.8c0,0.2,-0.2,0.4,-0.5,0.4h-3.1c-0.2,0,-0.5,-0.2,-0.5,-0.4V37.8C27.1,37.4,27.2,37.3,27.6,37.3"/>
    <path d="M4,30.1l4,-3.5h33.1l4,3.5H4z"/>
    <path d="M34.6,33.7c0,0.6,-1,0.6,-1,0S34.6,33.1,34.6,33.7"/>
    <path d="M41,32.8h1v7.1h-1V32.8z"/>
    <path d="M43.1,32.8h1v7.1h-1V32.8z"/>
    <path d="M34.6,37.3c0,0.6,-1,0.6,-1,0C33.6,36.8,34.6,36.7,34.6,37.3"/>
    <path d="M34.6,39.1c0,0.6,-1,0.6,-1,0C33.6,38.5,34.6,38.4,34.6,39.1"/>
    <path d="M0,17.7l6,-5.3h36.1l6,5.3v12.5H0V17.7z"/>
    <path d="M2.5,19.4H45.6c0.2,0,0.5,0.2,0.5,0.4v8.1c0,0.2,-0.2,0.4,-0.5,0.4H2.5c-0.2,0,-0.5,-0.2,-0.5,-0.4v-8.1C2,19.7,2.2,19.4,2.5,19.4"/>
    <path d="M34.6,23.1c0,0.6,-1,0.6,-1,0C33.6,22.4,34.6,22.4,34.6,23.1"/>
    <path d="M39,20.3h1v7.1h-1V20.3z"/>
    <path d="M3.5,20.3h3.1c0.2,0,0.5,0.2,0.5,0.4v1.8c0,0.2,-0.2,0.4,-0.5,0.4h-3.1c-0.2,0,-0.5,-0.2,-0.5,-0.4v-1.8C3,20.5,3.2,20.3,3.5,20.3"/>
    <path d="M3.5,24.9h3.1c0.2,0,0.5,0.2,0.5,0.4v1.8c0,0.2,-0.2,0.4,-0.5,0.4h-3.1c-0.2,0,-0.5,-0.2,-0.5,-0.4v-1.8C3,25.1,3.2,24.9,3.5,24.9"/>
    <path d="M9.6,20.3h3.1c0.2,0,0.5,0.2,0.5,0.4v1.8c0,0.2,-0.2,0.4,-0.5,0.4h-3.1c-0.2,0,-0.5,-0.2,-0.5,-0.4v-1.8C9.1,20.5,9.2,20.3,9.6,20.3"/>
    <path d="M15.5,20.3h3.1c0.2,0,0.5,0.2,0.5,0.4v1.8c0,0.2,-0.2,0.4,-0.5,0.4h-3.1c-0.2,0,-0.5,-0.2,-0.5,-0.4v-1.8C15,20.5,15.3,20.3,15.5,20.3"/>
    <path d="M21.5,20.3h3.1c0.2,0,0.5,0.2,0.5,0.4v1.8c0,0.2,-0.2,0.4,-0.5,0.4h-3.1c-0.2,0,-0.5,-0.2,-0.5,-0.4v-1.8C21,20.5,21.3,20.3,21.5,20.3"/>
    <path d="M27.6,20.3h3.1c0.2,0,0.5,0.2,0.5,0.4v1.8c0,0.2,-0.2,0.4,-0.5,0.4h-3.1c-0.2,0,-0.5,-0.2,-0.5,-0.4v-1.8C27.1,20.5,27.2,20.3,27.6,20.3"/>
    <path d="M9.6,24.9h3.1c0.2,0,0.5,0.2,0.5,0.4v1.8c0,0.2,-0.2,0.4,-0.5,0.4h-3.1c-0.2,0,-0.5,-0.2,-0.5,-0.4v-1.8C9.1,25.1,9.2,24.9,9.6,24.9"/>
    <path d="M15.5,24.9h3.1c0.2,0,0.5,0.2,0.5,0.4v1.8c0,0.2,-0.2,0.4,-0.5,0.4h-3.1c-0.2,0,-0.5,-0.2,-0.5,-0.4v-1.8C15,25.1,15.3,24.9,15.5,24.9"/>
    <path d="M21.5,24.9h3.1c0.2,0,0.5,0.2,0.5,0.4v1.8c0,0.2,-0.2,0.4,-0.5,0.4h-3.1c-0.2,0,-0.5,-0.2,-0.5,-0.4v-1.8C21,25.1,21.3,24.9,21.5,24.9"/>
    <path d="M27.6,24.9h3.1c0.2,0,0.5,0.2,0.5,0.4v1.8c0,0.2,-0.2,0.4,-0.5,0.4h-3.1c-0.2,0,-0.5,-0.2,-0.5,-0.4v-1.8C27.1,25.1,27.2,24.9,27.6,24.9"/>
    <path d="M4,17.7l4,-3.5h33.1l4,3.5H4z"/>
    <path d="M34.6,21.2c0,0.6,-1,0.6,-1,0C33.6,20.7,34.6,20.7,34.6,21.2"/>
    <path d="M41,20.3h1v7.1h-1V20.3z"/>
    <path d="M43.1,20.3h1v7.1h-1V20.3z"/>
    <path d="M34.6,24.9c0,0.6,-1,0.6,-1,0C33.6,24.3,34.6,24.2,34.6,24.9"/>
    <path d="M34.6,26.6c0,0.6,-1,0.6,-1,0C33.6,26.1,34.6,26,34.6,26.6"/>
    <path d="M0,5.3L6,0h36.1l6,5.3v12.5H0V5.3z"/>
    <path d="M2.5,7.1H45.6c0.2,0,0.5,0.2,0.5,0.4v8.1c0,0.2,-0.2,0.4,-0.5,0.4H2.5c-0.2,0,-0.5,-0.2,-0.5,-0.4v-8.1C2,7.3,2.2,7.1,2.5,7.1"/>
    <path d="M34.6,10.6c0,0.6,-1,0.6,-1,0C33.6,10,34.6,10,34.6,10.6"/>
    <path d="M39,7.9h1v7.1h-1V7.9z"/>
    <path d="M3.5,7.9h3.1c0.2,0,0.5,0.2,0.5,0.4v1.8c0,0.2,-0.2,0.4,-0.5,0.4h-3.1c-0.2,0,-0.5,-0.2,-0.5,-0.4V8.4C3,8.2,3.2,7.9,3.5,7.9"/>
    <path d="M3.5,12.4h3.1c0.2,0,0.5,0.2,0.5,0.4v1.8c0,0.2,-0.2,0.4,-0.5,0.4h-3.1c-0.2,0,-0.5,-0.2,-0.5,-0.4v-1.8C3,12.6,3.2,12.4,3.5,12.4"/>
    <path d="M9.6,7.9h3.1c0.2,0,0.5,0.2,0.5,0.4v1.8c0,0.2,-0.2,0.4,-0.5,0.4h-3.1c-0.2,0,-0.5,-0.2,-0.5,-0.4V8.4C9.1,8.2,9.2,7.9,9.6,7.9"/>
    <path d="M15.5,7.9h3.1c0.2,0,0.5,0.2,0.5,0.4v1.8c0,0.2,-0.2,0.4,-0.5,0.4h-3.1c-0.2,0,-0.5,-0.2,-0.5,-0.4V8.4C15,8.2,15.3,7.9,15.5,7.9"/>
    <path d="M21.5,7.9h3.1c0.2,0,0.5,0.2,0.5,0.4v1.8c0,0.2,-0.2,0.4,-0.5,0.4h-3.1c-0.2,0,-0.5,-0.2,-0.5,-0.4V8.4C21,8.2,21.3,7.9,21.5,7.9"/>
    <path d="M27.6,7.9h3.1c0.2,0,0.5,0.2,0.5,0.4v1.8c0,0.2,-0.2,0.4,-0.5,0.4h-3.1c-0.2,0,-0.5,-0.2,-0.5,-0.4V8.4C27.1,8.2,27.2,7.9,27.6,7.9"/>
    <path d="M9.6,12.4h3.1c0.2,0,0.5,0.2,0.5,0.4v1.8c0,0.2,-0.2,0.4,-0.5,0.4h-3.1c-0.2,0,-0.5,-0.2,-0.5,-0.4v-1.8C9.1,12.6,9.2,12.4,9.6,12.4"/>
    <path d="M15.5,12.4h3.1c0.2,0,0.5,0.2,0.5,0.4v1.8c0,0.2,-0.2,0.4,-0.5,0.4h-3.1c-0.2,0,-0.5,-0.2,-0.5,-0.4v-1.8C15,12.6,15.3,12.4,15.5,12.4"/>
    <path d="M21.5,12.4h3.1c0.2,0,0.5,0.2,0.5,0.4v1.8c0,0.2,-0.2,0.4,-0.5,0.4h-3.1c-0.2,0,-0.5,-0.2,-0.5,-0.4v-1.8C21,12.6,21.3,12.4,21.5,12.4"/>
    <path d="M27.6,12.4h3.1c0.2,0,0.5,0.2,0.5,0.4v1.8c0,0.2,-0.2,0.4,-0.5,0.4h-3.1c-0.2,0,-0.5,-0.2,-0.5,-0.4v-1.8C27.1,12.6,27.2,12.4,27.6,12.4"/>
    <path d="M4,5.3l4,-3.5h33.1l4,3.5H4z"/>
    <path d="M34.6,8.8c0,0.6,-1,0.6,-1,0S34.6,8.3,34.6,8.8"/>
    <path d="M41,7.9h1v7.1h-1V7.9z"/>
    <path d="M43.1,7.9h1v7.1h-1V7.9z"/>
    <path d="M34.6,12.4c0,0.6,-1,0.6,-1,0C33.6,11.8,34.6,11.8,34.6,12.4"/>
    <path d="M34.6,14.2c0,0.6,-1,0.6,-1,0C33.6,13.7,34.6,13.6,34.6,14.2"/>
</g>
<rect x="2" y="8.2" width="44.1" height="41.7" fill="none"/>
<polygon fill="none" points="42,0 6,0 0,5.3 0,55 48,55 48,5.3"/>
<circle fill="none" cx="24" cy="0" r="0.1"/>
<circle fill="none" cx="35.9" cy="0" r="0.1"/>
<circle fill="none" cx="48" cy="13.9" r="0.1"/>
<circle fill="none" cx="48" cy="27.5" r="0.1"/>
<circle fill="none" cx="48" cy="41.1" r="0.1"/>
<circle fill="none" cx="35.9" cy="55" r="0.1"/>
<circle fill="none" cx="24" cy="55" r="0.1"/>
<circle fill="none" cx="12.1" cy="55" r="0.1"/>
<circle fill="none" cx="0" cy="41.1" r="0.1"/>
<circle fill="none" cx="0" cy="27.5" r="0.1"/>
<circle fill="none" cx="0" cy="13.9" r="0.1"/>
<circle fill="none" cx="12.1" cy="0" r="0.1"/>
</g></g><rect stroke="none" stroke-width="0" fill="#FFFFFF" x="0" y="0" width="0" height="0" transform="translate(23.9,54.9)"/><path stroke="#000000" fill="none" d=""/><text font-family="OpenSansCondensedLight" font-size="14pt" fill="black" transform="translate(23.9,54.9)"/><rect stroke-width="0" fill="none" width="144.6" transform="translate(-48.3,65.1)"/><text font-family="OpenSansCondensedLight" font-size="14pt" fill="black" transform="translate(-48.3,65.1)" text-anchor="middle"><tspan x="72.3" y="16.8"> 236</tspan></text><path stroke="#000000" fill="none" transform="translate(-48.3,65.1)" d="M 55.5 19 83.5 19"/></g><g transform="translate(515,510)"><g><g>
<g stroke="#000000" stroke-dasharray="none" fill="#FFFFFF">
    <path d="M19,5.6H0v22.8c0,3.1,4.2,5.6,9.5,5.6s9.5,-2.5,9.5,-5.6v-22.8L19,5.6L19,5.6z"/>
    <path d="M9.5,0C4.2,0,0,2.5,0,5.6s4.2,5.6,9.5,5.6s9.5,-2.5,9.5,-5.6C19,2.5,14.7,0,9.5,0L9.5,0z"/>
</g>
<rect x="1" y="12.4" width="16.9" height="16.1" fill="none"/>
<circle fill="none" cx="9.5" cy="0" r="0.1"/>
<circle fill="none" cx="14.5" cy="0.9" r="0.1"/>
<circle fill="none" cx="19" cy="5.6" r="0.1"/>
<circle fill="none" cx="19" cy="17" r="0.1"/>
<circle fill="none" cx="19" cy="28.4" r="0.1"/>
<circle fill="none" cx="14.7" cy="33.1" r="0.1"/>
<circle fill="none" cx="9.5" cy="34" r="0.1"/>
<circle fill="none" cx="4" cy="32.9" r="0.1"/>
<circle fill="none" cx="0" cy="28.4" r="0.1"/>
<circle fill="none" cx="0" cy="17" r="0.1"/>
<circle fill="none" cx="0" cy="5.6" r="0.1"/>
<circle fill="none" cx="4.5" cy="0.9" r="0.1"/>
</g></g><rect stroke="none" stroke-width="0" fill="#FFFFFF" x="0" y="0" width="0" height="0" transform="translate(18.9,16.9)"/><path stroke="#000000" fill="none" d=""/><text font-family="OpenSansCondensedLight" font-size="14pt" fill="black" transform="translate(18.9,16.9)"/><rect stroke-width="0" fill="none" width="16.9" height="16.1" transform="translate(1,12.4)"/><text font-family="OpenSansCondensedLight" font-size="14pt" fill="black" transform="translate(1,12.4)" text-anchor="middle"><tspan x="8.5" y="11.9"> </tspan></text><path stroke="#000000" fill="none" transform="translate(1,12.4)" d="M 0 0"/></g><g transform="translate(515,335)"><g><g>
<g stroke="#000000" stroke-dasharray="none" fill="#FFFFFF">
    <rect x="5.3" y="5.2" width="43.4" height="42.7"/>
    <rect x="7.8" y="0" width="3.2" height="5.2"/>
    <rect x="12.8" y="0" width="3.2" height="5.2"/>
    <rect x="17.8" y="0" width="3.2" height="5.2"/>
    <rect x="22.9" y="0" width="3.2" height="5.2"/>
    <rect x="27.9" y="0" width="3.2" height="5.2"/>
    <rect x="32.9" y="0" width="3.2" height="5.2"/>
    <rect x="37.9" y="0" width="3.2" height="5.2"/>
    <rect x="43" y="0" width="3.2" height="5.2"/>
    <rect x="7.8" y="47.8" width="3.2" height="5.2"/>
    <rect x="12.8" y="47.8" width="3.2" height="5.2"/>
    <rect x="17.8" y="47.8" width="3.2" height="5.2"/>
    <rect x="22.9" y="47.8" width="3.2" height="5.2"/>
    <rect x="27.9" y="47.8" width="3.2" height="5.2"/>
    <rect x="32.9" y="47.8" width="3.2" height="5.2"/>
    <rect x="37.9" y="47.8" width="3.2" height="5.2"/>
    <rect x="43" y="47.8" width="3.2" height="5.2"/>
    <rect x="48.7" y="7.6" width="5.3" height="3.1"/>
    <rect x="48.7" y="12.6" width="5.3" height="3.1"/>
    <rect x="48.7" y="17.5" width="5.3" height="3.1"/>
    <rect x="48.7" y="22.5" width="5.3" height="3.1"/>
    <rect x="48.7" y="27.4" width="5.3" height="3.1"/>
    <rect x="48.7" y="32.3" width="5.3" height="3.1"/>
    <rect x="48.7" y="37.3" width="5.3" height="3.1"/>
    <rect x="48.7" y="42.2" width="5.3" height="3.1"/>
    <rect y="7.6" width="5.3" height="3.1"/>
    <rect x="0" y="12.6" width="5.3" height="3.1"/>
    <rect x="0" y="17.5" width="5.3" height="3.1"/>
    <rect x="0" y="22.5" width="5.3" height="3.1"/>
    <rect x="0" y="27.4" width="5.3" height="3.1"/>
    <rect x="0" y="32.3" width="5.3" height="3.1"/>
    <rect x="0" y="37.3" width="5.3" height="3.1"/>
    <rect x="0" y="42.2" width="5.3" height="3.1"/>
</g>
<rect x="7.5" y="7.3" fill="none" width="39" height="38.3"/>
<ellipse fill="none" cx="26.2" cy="0.1" rx="0" ry="0"/>
<ellipse fill="none" cx="44.5" cy="0.1" rx="0" ry="0"/>
<ellipse fill="none" cx="54" cy="13.9" rx="0" ry="0"/>
<ellipse fill="none" cx="54" cy="25.1" rx="0" ry="0"/>
<ellipse fill="none" cx="54" cy="38.7" rx="0" ry="0"/>
<ellipse fill="none" cx="44.8" cy="53" rx="0" ry="0"/>
<ellipse fill="none" cx="28" cy="53" rx="0" ry="0"/>
<ellipse fill="none" cx="9.4" cy="53" rx="0" ry="0"/>
<ellipse fill="none" cx="0.1" cy="39" rx="0" ry="0"/>
<ellipse fill="none" cx="0.1" cy="25.5" rx="0" ry="0"/>
<ellipse fill="none" cx="0.1" cy="14.6" rx="0" ry="0"/>
<ellipse fill="none" cx="9.4" cy="0.1" rx="0" ry="0"/>
</g></g><rect stroke="none" stroke-width="0" fill="#FFFFFF" x="0" y="0" width="0" height="0" transform="translate(54,25.1)"/><path stroke="#000000" fill="none" d=""/><text font-family="OpenSansCondensedLight" font-size="14pt" fill="black" transform="translate(54,25.1)"/><rect stroke-width="0" fill="none" width="162" transform="translate(-54,63)"/><text font-family="OpenSansCondensedLight" font-size="14pt" fill="black" transform="translate(-54,63)" text-anchor="middle"><tspan x="81" y="16.8"> 238</tspan></text><path stroke="#000000" fill="none" transform="translate(-54,63)" d="M 64.2 19 92.2 19"/></g><g transform="translate(709,334)"><g><g>
<g stroke="#000000" stroke-dasharray="none" fill="#FFFFFF">
    <path d="M56.7,0H1.3C0.6,0,0,0.7,0,1.5V39.7c0,0.8,0.6,1.5,1.3,1.5h22.3L22.1,48.1l-5.1,0.3v1.7h24.5v-1.7l-4.5,-0.3l-1.5,-6.8h21.3c0.7,0,1.3,-0.7,1.3,-1.5V1.5C58,0.7,57.4,0,56.7,0z"/>
    <path d="M56.2,2.6v35.6H1.8V2.6H56.2z"/>
</g>
<rect x="1.8" y="2.6" fill="none" width="54.4" height="35.6"/>
<circle fill="none" cx="29" cy="0" r="0.1"/>
<circle fill="none" cx="46.5" cy="0" r="0.1"/>
<circle fill="none" cx="58" cy="9.5" r="0.1"/>
<circle fill="none" cx="57.9" cy="20.4" r="0.1"/>
<circle fill="none" cx="57.9" cy="32.9" r="0.1"/>
<circle fill="none" cx="46.6" cy="41.1" r="0.1"/>
<circle fill="none" cx="29.1" cy="50" r="0.1"/>
<circle fill="none" cx="11.6" cy="41.2" r="0.1"/>
<circle fill="none" cx="0" cy="33" r="0.1"/>
<circle fill="none" cx="-0" cy="20.4" r="0.1"/>
<circle fill="none" cx="-0" cy="9.2" r="0.1"/>
<circle fill="none" cx="11.5" cy="0.1" r="0.1"/>
</g></g><rect stroke="none" stroke-width="1" fill="#FFFFFF" x="0" y="0" width="40" height="20" transform="translate(-38.5,83.1)"/><path stroke="#000000" fill="none" d="M11.6,41.2 C-16.5,48.7 15.3,75.6 -12.7 83.1"/><text font-family="OpenSansCondensedLight" font-size="14pt" fill="black" transform="translate(-38.5,83.1)" text-anchor="middle"><tspan x="20" y="16.3">240</tspan></text><rect stroke-width="0" fill="none" width="174.6" transform="translate(-58.3,60.1)"/><text font-family="OpenSansCondensedLight" font-size="14pt" fill="black" transform="translate(-58.3,60.1)" text-anchor="middle"><tspan x="87.3" y="16.8"> </tspan></text><path stroke="#000000" fill="none" transform="translate(-58.3,60.1)" d="M 0 0"/></g><g transform="translate(620,334)"><g><g>
<g stroke="#000000" stroke-dasharray="none" fill="#FFFFFF">
    <path d="M56.7,0H1.3C0.6,0,0,0.7,0,1.5V39.7c0,0.8,0.6,1.5,1.3,1.5h22.3L22.1,48.1l-5.1,0.3v1.7h24.5v-1.7l-4.5,-0.3l-1.5,-6.8h21.3c0.7,0,1.3,-0.7,1.3,-1.5V1.5C58,0.7,57.4,0,56.7,0z"/>
    <path d="M56.2,2.6v35.6H1.8V2.6H56.2z"/>
</g>
<rect x="1.8" y="2.6" fill="none" width="54.4" height="35.6"/>
<circle fill="none" cx="29" cy="0" r="0.1"/>
<circle fill="none" cx="46.5" cy="0" r="0.1"/>
<circle fill="none" cx="58" cy="9.5" r="0.1"/>
<circle fill="none" cx="57.9" cy="20.4" r="0.1"/>
<circle fill="none" cx="57.9" cy="32.9" r="0.1"/>
<circle fill="none" cx="46.6" cy="41.1" r="0.1"/>
<circle fill="none" cx="29.1" cy="50" r="0.1"/>
<circle fill="none" cx="11.6" cy="41.2" r="0.1"/>
<circle fill="none" cx="0" cy="33" r="0.1"/>
<circle fill="none" cx="-0" cy="20.4" r="0.1"/>
<circle fill="none" cx="-0" cy="9.2" r="0.1"/>
<circle fill="none" cx="11.5" cy="0.1" r="0.1"/>
</g></g><rect stroke="none" stroke-width="1" fill="#FFFFFF" x="0" y="0" width="40" height="20" transform="translate(56.5,83)"/><path stroke="#000000" fill="none" d="M46.6,41.1 C39.1,69.1 78.3,55 70.7 83"/><text font-family="OpenSansCondensedLight" font-size="14pt" fill="black" transform="translate(56.5,83)" text-anchor="middle"><tspan x="20" y="16.3">240</tspan></text><rect stroke-width="0" fill="none" width="174.6" transform="translate(-58.3,60.1)"/><text font-family="OpenSansCondensedLight" font-size="14pt" fill="black" transform="translate(-58.3,60.1)" text-anchor="middle"><tspan x="87.3" y="16.8"> </tspan></text><path stroke="#000000" fill="none" transform="translate(-58.3,60.1)" d="M 0 0"/></g><g transform="translate(112.5,471.5)"><g transform="rotate(270,37.5,15)"><g>
<g stroke="#000000" stroke-dasharray="none" fill="#FFFFFF">
    <path d="M73.7,26H1.2c-0.7,0,-1.2,-0.9,-1.2,-1.9V1.9C0,0.9,0.6,0,1.2,0h72.5c0.7,0,1.2,0.9,1.2,1.9v22.2C75,25.1,74.4,26,73.7,26z"/>
    <polygon points="11.1,29.9 7.5,29.9 5.7,26 12.7,26"/>
    <polygon points="67.7,29.9 64.1,29.9 62.3,26 69.3,26"/>
    <ellipse cx="47.7" cy="9.7" rx="1.7" ry="2.6"/>
    <ellipse cx="52.8" cy="9.7" rx="1.7" ry="2.6"/>
    <ellipse cx="57.9" cy="9.7" rx="1.7" ry="2.6"/>
    <ellipse cx="63" cy="9.7" rx="1.7" ry="2.6"/>
    <ellipse cx="68.2" cy="9.7" rx="1.7" ry="2.6"/>
    <rect x="2.9" y="17.4" width="68.9" height="3.2"/>
</g>
<rect x="5.7" y="2.7" fill="none" width="62.4" height="20"/>
<circle fill="none" cx="38.3" cy="0" r="0.1"/>
<circle fill="none" cx="56.1" cy="0" r="0.1"/>
<circle fill="none" cx="74.7" cy="0.6" r="0.1"/>
<circle fill="none" cx="75" cy="13" r="0.1"/>
<circle fill="none" cx="74.7" cy="25.5" r="0.1"/>
<circle fill="none" cx="56.3" cy="26" r="0.1"/>
<circle fill="none" cx="38.3" cy="26" r="0.1"/>
<circle fill="none" cx="18.1" cy="26" r="0.1"/>
<circle fill="none" cx="0.4" cy="25.5" r="0.1"/>
<circle fill="none" cx="0.1" cy="13.1" r="0.1"/>
<circle fill="none" cx="0.4" cy="0.6" r="0.1"/>
<circle fill="none" cx="18.2" cy="-0.1" r="0.1"/>
</g></g><rect stroke="none" stroke-width="0" fill="#FFFFFF" x="0" y="0" width="0" height="0" transform="translate(48.4,14.1)"/><path stroke="#000000" fill="none" d=""/><text font-family="OpenSansCondensedLight" font-size="14pt" fill="black" transform="translate(48.4,14.1)"/><rect stroke-width="0" fill="none" width="90.3" transform="translate(-7.8,62.5)"/><text font-family="OpenSansCondensedLight" font-size="14pt" fill="black" transform="translate(-7.8,62.5)" text-anchor="middle"><tspan x="45.1" y="16.8"> 242</tspan></text><path stroke="#000000" fill="none" transform="translate(-7.8,62.5)" d="M 31.2 19 59.1 19"/></g><g transform="translate(169,473)"><g transform="rotate(270,37.5,15)"><g>
<g stroke="#000000" stroke-dasharray="none" fill="#FFFFFF">
    <path d="M73.7,26H1.2c-0.7,0,-1.2,-0.9,-1.2,-1.9V1.9C0,0.9,0.6,0,1.2,0h72.5c0.7,0,1.2,0.9,1.2,1.9v22.2C75,25.1,74.4,26,73.7,26z"/>
    <polygon points="11.1,29.9 7.5,29.9 5.7,26 12.7,26"/>
    <polygon points="67.7,29.9 64.1,29.9 62.3,26 69.3,26"/>
    <ellipse cx="47.7" cy="9.7" rx="1.7" ry="2.6"/>
    <ellipse cx="52.8" cy="9.7" rx="1.7" ry="2.6"/>
    <ellipse cx="57.9" cy="9.7" rx="1.7" ry="2.6"/>
    <ellipse cx="63" cy="9.7" rx="1.7" ry="2.6"/>
    <ellipse cx="68.2" cy="9.7" rx="1.7" ry="2.6"/>
    <rect x="2.9" y="17.4" width="68.9" height="3.2"/>
</g>
<rect x="5.7" y="2.7" fill="none" width="62.4" height="20"/>
<circle fill="none" cx="38.3" cy="0" r="0.1"/>
<circle fill="none" cx="56.1" cy="0" r="0.1"/>
<circle fill="none" cx="74.7" cy="0.6" r="0.1"/>
<circle fill="none" cx="75" cy="13" r="0.1"/>
<circle fill="none" cx="74.7" cy="25.5" r="0.1"/>
<circle fill="none" cx="56.3" cy="26" r="0.1"/>
<circle fill="none" cx="38.3" cy="26" r="0.1"/>
<circle fill="none" cx="18.1" cy="26" r="0.1"/>
<circle fill="none" cx="0.4" cy="25.5" r="0.1"/>
<circle fill="none" cx="0.1" cy="13.1" r="0.1"/>
<circle fill="none" cx="0.4" cy="0.6" r="0.1"/>
<circle fill="none" cx="18.2" cy="-0.1" r="0.1"/>
</g></g><rect stroke="none" stroke-width="0" fill="#FFFFFF" x="0" y="0" width="0" height="0" transform="translate(48.4,14.1)"/><path stroke="#000000" fill="none" d=""/><text font-family="OpenSansCondensedLight" font-size="14pt" fill="black" transform="translate(48.4,14.1)"/><rect stroke-width="0" fill="none" width="90.3" transform="translate(-7.8,62.5)"/><text font-family="OpenSansCondensedLight" font-size="14pt" fill="black" transform="translate(-7.8,62.5)" text-anchor="middle"><tspan x="45.1" y="16.8"> 244</tspan></text><path stroke="#000000" fill="none" transform="translate(-7.8,62.5)" d="M 31.2 19 59.1 19"/></g><g transform="translate(254,452)"><g><g>
<g stroke-width="0.5" stroke="#000000" stroke-dasharray="none" fill="#FFFFFF">
    <path d="M0,51.8l8.2,-6.5h49.6l8.2,6.5v15.2H0V51.8z"/>
    <path d="M3.4,53.9H62.7c0.3,0,0.7,0.3,0.7,0.5v9.8c0,0.3,-0.3,0.5,-0.7,0.5H3.4c-0.3,0,-0.7,-0.3,-0.7,-0.5v-9.8C2.7,54.2,3.1,53.9,3.4,53.9"/>
    <path d="M47.5,58.4c0,0.7,-1.4,0.7,-1.4,0C46.2,57.6,47.5,57.6,47.5,58.4"/>
    <path d="M53.7,55.1h1.4v8.6h-1.4V55.1z"/>
    <path d="M4.8,55.1h4.3c0.3,0,0.7,0.3,0.7,0.5v2.2c0,0.3,-0.3,0.5,-0.7,0.5h-4.3c-0.3,0,-0.7,-0.3,-0.7,-0.5v-2.1C4.1,55.3,4.5,55.1,4.8,55.1"/>
    <path d="M4.8,60.5h4.3c0.3,0,0.7,0.3,0.7,0.5v2.2c0,0.3,-0.3,0.5,-0.7,0.5h-4.3c-0.3,0,-0.7,-0.3,-0.7,-0.5v-2.2C4.1,60.8,4.5,60.5,4.8,60.5"/>
    <path d="M13.2,55.1h4.3c0.3,0,0.7,0.3,0.7,0.5v2.2c0,0.3,-0.3,0.5,-0.7,0.5h-4.3c-0.3,0,-0.7,-0.3,-0.7,-0.5v-2.1C12.5,55.3,12.7,55.1,13.2,55.1"/>
    <path d="M21.4,55.1h4.3c0.3,0,0.7,0.3,0.7,0.5v2.2c0,0.3,-0.3,0.5,-0.7,0.5h-4.3c-0.3,0,-0.7,-0.3,-0.7,-0.5v-2.1C20.7,55.3,21,55.1,21.4,55.1"/>
    <path d="M29.6,55.1h4.3c0.3,0,0.7,0.3,0.7,0.5v2.2c0,0.3,-0.3,0.5,-0.7,0.5h-4.3c-0.3,0,-0.7,-0.3,-0.7,-0.5v-2.1C28.9,55.3,29.2,55.1,29.6,55.1"/>
    <path d="M37.9,55.1h4.3c0.3,0,0.7,0.3,0.7,0.5v2.2c0,0.3,-0.3,0.5,-0.7,0.5h-4.3c-0.3,0,-0.7,-0.3,-0.7,-0.5v-2.1C37.3,55.3,37.4,55.1,37.9,55.1"/>
    <path d="M13.2,60.5h4.3c0.3,0,0.7,0.3,0.7,0.5v2.2c0,0.3,-0.3,0.5,-0.7,0.5h-4.3c-0.3,0,-0.7,-0.3,-0.7,-0.5v-2.2C12.5,60.8,12.7,60.5,13.2,60.5"/>
    <path d="M21.4,60.5h4.3c0.3,0,0.7,0.3,0.7,0.5v2.2c0,0.3,-0.3,0.5,-0.7,0.5h-4.3c-0.3,0,-0.7,-0.3,-0.7,-0.5v-2.2C20.7,60.8,21,60.5,21.4,60.5"/>
    <path d="M29.6,60.5h4.3c0.3,0,0.7,0.3,0.7,0.5v2.2c0,0.3,-0.3,0.5,-0.7,0.5h-4.3c-0.3,0,-0.7,-0.3,-0.7,-0.5v-2.2C28.9,60.8,29.2,60.5,29.6,60.5"/>
    <path d="M37.9,60.5h4.3c0.3,0,0.7,0.3,0.7,0.5v2.2c0,0.3,-0.3,0.5,-0.7,0.5h-4.3c-0.3,0,-0.7,-0.3,-0.7,-0.5v-2.2C37.3,60.8,37.4,60.5,37.9,60.5"/>
    <path d="M5.5,51.8l5.5,-4.3h45.5l5.5,4.3H5.5z"/>
    <path d="M47.5,56.2c0,0.7,-1.4,0.7,-1.4,0C46.2,55.4,47.5,55.4,47.5,56.2"/>
    <path d="M56.4,55.1h1.4v8.6h-1.4V55.1z"/>
    <path d="M59.3,55.1h1.4v8.6h-1.4V55.1z"/>
    <path d="M47.5,60.5c0,0.7,-1.4,0.7,-1.4,0C46.2,59.8,47.5,59.7,47.5,60.5"/>
    <path d="M47.5,62.7c0,0.7,-1.4,0.7,-1.4,0C46.2,62,47.5,62,47.5,62.7"/>
    <path d="M0,36.7l8.2,-6.5h49.6l8.2,6.5v15.2H0V36.7z"/>
    <path d="M3.4,38.9H62.7c0.3,0,0.7,0.3,0.7,0.5v9.8c0,0.3,-0.3,0.5,-0.7,0.5H3.4c-0.3,0,-0.7,-0.3,-0.7,-0.5v-9.8C2.7,39.1,3.1,38.9,3.4,38.9"/>
    <path d="M47.5,43.2c0,0.7,-1.4,0.7,-1.4,0C46.2,42.5,47.5,42.5,47.5,43.2"/>
    <path d="M53.7,39.9h1.4v8.6h-1.4V39.9z"/>
    <path d="M4.8,39.9h4.3c0.3,0,0.7,0.3,0.7,0.5v2.2c0,0.3,-0.3,0.5,-0.7,0.5h-4.3c-0.3,0,-0.7,-0.3,-0.7,-0.5v-2.2C4.1,40.2,4.5,39.9,4.8,39.9"/>
    <path d="M4.8,45.5h4.3c0.3,0,0.7,0.3,0.7,0.5v2.2c0,0.3,-0.3,0.5,-0.7,0.5h-4.3c-0.3,0,-0.7,-0.3,-0.7,-0.5V46C4.1,45.6,4.5,45.5,4.8,45.5"/>
    <path d="M13.2,39.9h4.3c0.3,0,0.7,0.3,0.7,0.5v2.2c0,0.3,-0.3,0.5,-0.7,0.5h-4.3c-0.3,0,-0.7,-0.3,-0.7,-0.5v-2.2C12.5,40.2,12.7,39.9,13.2,39.9"/>
    <path d="M21.4,39.9h4.3c0.3,0,0.7,0.3,0.7,0.5v2.2c0,0.3,-0.3,0.5,-0.7,0.5h-4.3c-0.3,0,-0.7,-0.3,-0.7,-0.5v-2.2C20.7,40.2,21,39.9,21.4,39.9"/>
    <path d="M29.6,39.9h4.3c0.3,0,0.7,0.3,0.7,0.5v2.2c0,0.3,-0.3,0.5,-0.7,0.5h-4.3c-0.3,0,-0.7,-0.3,-0.7,-0.5v-2.2C28.9,40.2,29.2,39.9,29.6,39.9"/>
    <path d="M37.9,39.9h4.3c0.3,0,0.7,0.3,0.7,0.5v2.2c0,0.3,-0.3,0.5,-0.7,0.5h-4.3c-0.3,0,-0.7,-0.3,-0.7,-0.5v-2.2C37.3,40.2,37.4,39.9,37.9,39.9"/>
    <path d="M13.2,45.5h4.3c0.3,0,0.7,0.3,0.7,0.5v2.2c0,0.3,-0.3,0.5,-0.7,0.5h-4.3c-0.3,0,-0.7,-0.3,-0.7,-0.5V46C12.5,45.6,12.7,45.5,13.2,45.5"/>
    <path d="M21.4,45.5h4.3c0.3,0,0.7,0.3,0.7,0.5v2.2c0,0.3,-0.3,0.5,-0.7,0.5h-4.3c-0.3,0,-0.7,-0.3,-0.7,-0.5V46C20.7,45.6,21,45.5,21.4,45.5"/>
    <path d="M29.6,45.5h4.3c0.3,0,0.7,0.3,0.7,0.5v2.2c0,0.3,-0.3,0.5,-0.7,0.5h-4.3c-0.3,0,-0.7,-0.3,-0.7,-0.5V46C28.9,45.6,29.2,45.5,29.6,45.5"/>
    <path d="M37.9,45.5h4.3c0.3,0,0.7,0.3,0.7,0.5v2.2c0,0.3,-0.3,0.5,-0.7,0.5h-4.3c-0.3,0,-0.7,-0.3,-0.7,-0.5V46C37.3,45.6,37.4,45.5,37.9,45.5"/>
    <path d="M5.5,36.7l5.5,-4.3h45.5l5.5,4.3H5.5z"/>
    <path d="M47.5,41c0,0.7,-1.4,0.7,-1.4,0S47.5,40.3,47.5,41"/>
    <path d="M56.4,39.9h1.4v8.6h-1.4V39.9z"/>
    <path d="M59.3,39.9h1.4v8.6h-1.4V39.9z"/>
    <path d="M47.5,45.5c0,0.7,-1.4,0.7,-1.4,0C46.2,44.8,47.5,44.7,47.5,45.5"/>
    <path d="M47.5,47.6c0,0.7,-1.4,0.7,-1.4,0C46.2,46.9,47.5,46.8,47.5,47.6"/>
    <path d="M0,21.5l8.2,-6.5h49.6l8.2,6.5v15.2H0V21.5z"/>
    <path d="M3.4,23.7H62.7c0.3,0,0.7,0.3,0.7,0.5v9.8c0,0.3,-0.3,0.5,-0.7,0.5H3.4c-0.3,0,-0.7,-0.3,-0.7,-0.5v-9.8C2.7,23.9,3.1,23.7,3.4,23.7"/>
    <path d="M47.5,28.1c0,0.7,-1.4,0.7,-1.4,0C46.2,27.3,47.5,27.3,47.5,28.1"/>
    <path d="M53.7,24.7h1.4v8.6h-1.4V24.7z"/>
    <path d="M4.8,24.7h4.3c0.3,0,0.7,0.3,0.7,0.5v2.2c0,0.3,-0.3,0.5,-0.7,0.5h-4.3c-0.3,0,-0.7,-0.3,-0.7,-0.5v-2.2C4.1,25,4.5,24.7,4.8,24.7"/>
    <path d="M4.8,30.3h4.3c0.3,0,0.7,0.3,0.7,0.5v2.2c0,0.3,-0.3,0.5,-0.7,0.5h-4.3c-0.3,0,-0.7,-0.3,-0.7,-0.5v-2.2C4.1,30.5,4.5,30.3,4.8,30.3"/>
    <path d="M13.2,24.7h4.3c0.3,0,0.7,0.3,0.7,0.5v2.2c0,0.3,-0.3,0.5,-0.7,0.5h-4.3c-0.3,0,-0.7,-0.3,-0.7,-0.5v-2.2C12.5,25,12.7,24.7,13.2,24.7"/>
    <path d="M21.4,24.7h4.3c0.3,0,0.7,0.3,0.7,0.5v2.2c0,0.3,-0.3,0.5,-0.7,0.5h-4.3c-0.3,0,-0.7,-0.3,-0.7,-0.5v-2.2C20.7,25,21,24.7,21.4,24.7"/>
    <path d="M29.6,24.7h4.3c0.3,0,0.7,0.3,0.7,0.5v2.2c0,0.3,-0.3,0.5,-0.7,0.5h-4.3c-0.3,0,-0.7,-0.3,-0.7,-0.5v-2.2C28.9,25,29.2,24.7,29.6,24.7"/>
    <path d="M37.9,24.7h4.3c0.3,0,0.7,0.3,0.7,0.5v2.2c0,0.3,-0.3,0.5,-0.7,0.5h-4.3c-0.3,0,-0.7,-0.3,-0.7,-0.5v-2.2C37.3,25,37.4,24.7,37.9,24.7"/>
    <path d="M13.2,30.3h4.3c0.3,0,0.7,0.3,0.7,0.5v2.2c0,0.3,-0.3,0.5,-0.7,0.5h-4.3c-0.3,0,-0.7,-0.3,-0.7,-0.5v-2.2C12.5,30.5,12.7,30.3,13.2,30.3"/>
    <path d="M21.4,30.3h4.3c0.3,0,0.7,0.3,0.7,0.5v2.2c0,0.3,-0.3,0.5,-0.7,0.5h-4.3c-0.3,0,-0.7,-0.3,-0.7,-0.5v-2.2C20.7,30.5,21,30.3,21.4,30.3"/>
    <path d="M29.6,30.3h4.3c0.3,0,0.7,0.3,0.7,0.5v2.2c0,0.3,-0.3,0.5,-0.7,0.5h-4.3c-0.3,0,-0.7,-0.3,-0.7,-0.5v-2.2C28.9,30.5,29.2,30.3,29.6,30.3"/>
    <path d="M37.9,30.3h4.3c0.3,0,0.7,0.3,0.7,0.5v2.2c0,0.3,-0.3,0.5,-0.7,0.5h-4.3c-0.3,0,-0.7,-0.3,-0.7,-0.5v-2.2C37.3,30.5,37.4,30.3,37.9,30.3"/>
    <path d="M5.5,21.5l5.5,-4.3h45.5l5.5,4.3H5.5z"/>
    <path d="M47.5,25.8c0,0.7,-1.4,0.7,-1.4,0C46.2,25.2,47.5,25.2,47.5,25.8"/>
    <path d="M56.4,24.7h1.4v8.6h-1.4V24.7z"/>
    <path d="M59.3,24.7h1.4v8.6h-1.4V24.7z"/>
    <path d="M47.5,30.3c0,0.7,-1.4,0.7,-1.4,0C46.2,29.6,47.5,29.5,47.5,30.3"/>
    <path d="M47.5,32.4c0,0.7,-1.4,0.7,-1.4,0C46.2,31.7,47.5,31.6,47.5,32.4"/>
    <path d="M0,6.5L8.2,0h49.6l8.2,6.5v15.2H0V6.5z"/>
    <path d="M3.4,8.6H62.7c0.3,0,0.7,0.3,0.7,0.5v9.8c0,0.3,-0.3,0.5,-0.7,0.5H3.4c-0.3,0,-0.7,-0.3,-0.7,-0.5v-9.8C2.7,8.9,3.1,8.6,3.4,8.6"/>
    <path d="M47.5,12.9c0,0.7,-1.4,0.7,-1.4,0C46.2,12.2,47.5,12.2,47.5,12.9"/>
    <path d="M53.7,9.7h1.4v8.6h-1.4V9.7z"/>
    <path d="M4.8,9.7h4.3c0.3,0,0.7,0.3,0.7,0.5v2.2c0,0.3,-0.3,0.5,-0.7,0.5h-4.3c-0.3,0,-0.7,-0.3,-0.7,-0.5V10.2C4.1,10,4.5,9.7,4.8,9.7"/>
    <path d="M4.8,15.1h4.3c0.3,0,0.7,0.3,0.7,0.5v2.2c0,0.3,-0.3,0.5,-0.7,0.5h-4.3c-0.3,0,-0.7,-0.3,-0.7,-0.5v-2.1C4.1,15.3,4.5,15.1,4.8,15.1"/>
    <path d="M13.2,9.7h4.3c0.3,0,0.7,0.3,0.7,0.5v2.2c0,0.3,-0.3,0.5,-0.7,0.5h-4.3c-0.3,0,-0.7,-0.3,-0.7,-0.5V10.2C12.5,10,12.7,9.7,13.2,9.7"/>
    <path d="M21.4,9.7h4.3c0.3,0,0.7,0.3,0.7,0.5v2.2c0,0.3,-0.3,0.5,-0.7,0.5h-4.3c-0.3,0,-0.7,-0.3,-0.7,-0.5V10.2C20.7,10,21,9.7,21.4,9.7"/>
    <path d="M29.6,9.7h4.3c0.3,0,0.7,0.3,0.7,0.5v2.2c0,0.3,-0.3,0.5,-0.7,0.5h-4.3c-0.3,0,-0.7,-0.3,-0.7,-0.5V10.2C28.9,10,29.2,9.7,29.6,9.7"/>
    <path d="M37.9,9.7h4.3c0.3,0,0.7,0.3,0.7,0.5v2.2c0,0.3,-0.3,0.5,-0.7,0.5h-4.3c-0.3,0,-0.7,-0.3,-0.7,-0.5V10.2C37.3,10,37.4,9.7,37.9,9.7"/>
    <path d="M13.2,15.1h4.3c0.3,0,0.7,0.3,0.7,0.5v2.2c0,0.3,-0.3,0.5,-0.7,0.5h-4.3c-0.3,0,-0.7,-0.3,-0.7,-0.5v-2.1C12.5,15.3,12.7,15.1,13.2,15.1"/>
    <path d="M21.4,15.1h4.3c0.3,0,0.7,0.3,0.7,0.5v2.2c0,0.3,-0.3,0.5,-0.7,0.5h-4.3c-0.3,0,-0.7,-0.3,-0.7,-0.5v-2.1C20.7,15.3,21,15.1,21.4,15.1"/>
    <path d="M29.6,15.1h4.3c0.3,0,0.7,0.3,0.7,0.5v2.2c0,0.3,-0.3,0.5,-0.7,0.5h-4.3c-0.3,0,-0.7,-0.3,-0.7,-0.5v-2.1C28.9,15.3,29.2,15.1,29.6,15.1"/>
    <path d="M37.9,15.1h4.3c0.3,0,0.7,0.3,0.7,0.5v2.2c0,0.3,-0.3,0.5,-0.7,0.5h-4.3c-0.3,0,-0.7,-0.3,-0.7,-0.5v-2.1C37.3,15.3,37.4,15.1,37.9,15.1"/>
    <path d="M5.5,6.5l5.5,-4.3h45.5l5.5,4.3H5.5z"/>
    <path d="M47.5,10.8c0,0.7,-1.4,0.7,-1.4,0S47.5,10.1,47.5,10.8"/>
    <path d="M56.4,9.7h1.4v8.6h-1.4V9.7z"/>
    <path d="M59.3,9.7h1.4v8.6h-1.4V9.7z"/>
    <path d="M47.5,15.1c0,0.7,-1.4,0.7,-1.4,0C46.2,14.4,47.5,14.4,47.5,15.1"/>
    <path d="M47.5,17.3c0,0.7,-1.4,0.7,-1.4,0C46.2,16.7,47.5,16.5,47.5,17.3"/>
</g>
<rect x="2.7" y="9.9" width="60.7" height="50.8" fill="none"/>
<polygon fill="none" points="57.8,0 8.2,0 0,6.5 0,67 66,67 66,6.5"/>
<circle fill="none" cx="33" cy="0" r="0.1"/>
<circle fill="none" cx="49.3" cy="0" r="0.1"/>
<circle fill="none" cx="66" cy="16.9" r="0.1"/>
<circle fill="none" cx="66" cy="33.5" r="0.1"/>
<circle fill="none" cx="66" cy="50.1" r="0.1"/>
<circle fill="none" cx="49.3" cy="67" r="0.1"/>
<circle fill="none" cx="33" cy="67" r="0.1"/>
<circle fill="none" cx="16.7" cy="67" r="0.1"/>
<circle fill="none" cx="0" cy="50.1" r="0.1"/>
<circle fill="none" cx="0" cy="33.5" r="0.1"/>
<circle fill="none" cx="0" cy="16.9" r="0.1"/>
<circle fill="none" cx="16.7" cy="0" r="0.1"/>
</g></g><rect stroke="none" stroke-width="0" fill="#FFFFFF" x="0" y="0" width="0" height="0" transform="translate(65.9,33.4)"/><path stroke="#000000" fill="none" d=""/><text font-family="OpenSansCondensedLight" font-size="14pt" fill="black" transform="translate(65.9,33.4)"/><rect stroke-width="0" fill="none" width="198.5" transform="translate(-66.3,77.1)"/><text font-family="OpenSansCondensedLight" font-size="14pt" fill="black" transform="translate(-66.3,77.1)" text-anchor="middle"><tspan x="99.3" y="16.8"> 246</tspan></text><path stroke="#000000" fill="none" transform="translate(-66.3,77.1)" d="M 82.5 19 110.5 19"/></g><g transform="translate(351,453)"><g><g>
<g stroke="#000000" stroke-dasharray="none" fill="#FFFFFF">
    <path stroke-linejoin="round" d="M20,59.1v4.5c0,0.1,-0.1,0.4,-0.2,0.4H4.8c-0.1,0,-0.2,-0.1,-0.2,-0.4v-4.5"/>
    <path stroke-linejoin="round" d="M82.1,59.1v4.5c0,0.1,-0.1,0.4,-0.2,0.4H66.9c-0.1,0,-0.2,-0.1,-0.2,-0.4v-4.5"/>
    <path stroke-linejoin="round" d="M0.9,44h85.9c0.5,0,0.9,0.4,0.9,0.7v13.7c0,0.4,-0.5,0.7,-0.9,0.7H0.9c-0.5,0,-0.9,-0.4,-0.9,-0.7v-13.7C0,44.4,0.4,44,0.9,44"/>
    <ellipse stroke-linejoin="round" cx="9.9" cy="50.6" rx="2" ry="2.6"/>
    <ellipse stroke-linejoin="round" cx="17.9" cy="50.6" rx="2" ry="2.6"/>
    <polygon stroke-linejoin="round" points="6.7,0 89,39.8 88.2,42.5 6,2.7"/>
    <path stroke-linejoin="round" d="M35.5,52.5c0,0.4,-0.2,0.7,-0.5,0.7h-10.1c-0.3,0,-0.5,-0.3,-0.5,-0.7v-3.8c0,-0.4,0.2,-0.7,0.5,-0.7h10.1c0.3,0,0.5,0.3,0.5,0.7V52.5z"/>
</g>
<rect x="3.5" y="22.7" fill="none" width="80.8" height="18.3"/>
<circle fill="none" cx="47.2" cy="19.6" r="0.1"/>
<circle fill="none" cx="74.4" cy="32.6" r="0.1"/>
<circle fill="none" cx="87.8" cy="51.6" r="0.1"/>
<circle fill="none" cx="74.3" cy="64" r="0.1"/>
<circle fill="none" cx="60.4" cy="59.1" r="0.1"/>
<circle fill="none" cx="43.9" cy="59.1" r="0.1"/>
<circle fill="none" cx="27.8" cy="59.1" r="0.1"/>
<circle fill="none" cx="12.3" cy="64" r="0.1"/>
<circle fill="none" cx="0" cy="55.7" r="0.1"/>
<circle fill="none" cx="0.1" cy="47.3" r="0.1"/>
<circle fill="none" cx="6.4" cy="1.2" r="0.1"/>
<circle fill="none" cx="25.3" cy="9" r="0.1"/>
</g></g><rect stroke="none" stroke-width="0" fill="#FFFFFF" x="0" y="0" width="0" height="0" transform="translate(87.7,51.5)"/><path stroke="#000000" fill="none" d=""/><text font-family="OpenSansCondensedLight" font-size="14pt" fill="black" transform="translate(87.7,51.5)"/><rect stroke-width="0" fill="none" width="267.3" transform="translate(-89.2,74.1)"/><text font-family="OpenSansCondensedLight" font-size="14pt" fill="black" transform="translate(-89.2,74.1)" text-anchor="middle"><tspan x="133.6" y="16.8"> 248</tspan></text><path stroke="#000000" fill="none" transform="translate(-89.2,74.1)" d="M 116.9 19 144.8 19"/></g><g transform="translate(584,467)"><g><g>
<g stroke="#000000" stroke-dasharray="none" fill="#FFFFFF">
    <path d="M36.9,12.7C36.9,12.7,36.9,12.7,36.9,12.7l0,-10.9c0,-1,-0.8,-1.8,-1.7,-1.8H6.2c0,0,0,0,0,0L0,6.7c0,0,0,0,0,0v9.7c0,0,0,0,0,0h1.2c0,0,0,0,0,0V19c0,0,0,0,0,0H0c0,0,0,0,0,0v31c0,1,0.8,1.8,1.7,1.8h11.3c0,0,0,0,0,0v-0.4c0,0,0,0,0,0H16.9c0,0,0,0,0,0v0.4c0,0,0,0,0,0h2.4c0,0,0,0,0,0v-0.4c0,0,0,0,0,0h3.8c0,0,0,0,0,0v0.4c0,0,0,0,0,0h12c0.9,0,1.7,-0.8,1.7,-1.8V23.8c0,0,0,0,0,0h-1c0,0,0,0,0,0V12.7c0,0,0,0,0,0H36.9z"/>
</g>
<rect x="2.3" y="5.6" width="3.3" height="7.6"/>
<rect x="6.3" y="1.7" width="3.3" height="8.3"/>
<rect x="10.2" y="1.7" width="3.3" height="8.3"/>
<rect x="14.1" y="1.7" width="3.3" height="8.3"/>
<rect x="17.9" y="1.7" width="3.3" height="8.3"/>
<rect x="21.8" y="1.7" width="3.3" height="8.3"/>
<rect x="25.7" y="1.7" width="3.3" height="8.3"/>
<rect x="29.7" y="2" width="2.6" height="7.9"/>
<rect x="32.7" y="2" width="2" height="7.9"/>
<rect x="3.6" y="4" fill="none" width="29.7" height="43.7"/>
<circle fill="none" cx="20.1" cy="-0.1" r="0.1"/>
<circle fill="none" cx="31.7" cy="0.1" r="0.1"/>
<circle fill="none" cx="37" cy="11.2" r="0.1"/>
<circle fill="none" cx="37" cy="28.9" r="0.1"/>
<circle fill="none" cx="37" cy="42" r="0.1"/>
<circle fill="none" cx="29.7" cy="51.8" r="0.1"/>
<circle fill="none" cx="18.1" cy="51.9" r="0.1"/>
<circle fill="none" cx="4.1" cy="51.9" r="0.1"/>
<circle fill="none" cx="0" cy="41.8" r="0.1"/>
<circle fill="none" cx="0" cy="29" r="0.1"/>
<circle fill="none" cx="0" cy="12.9" r="0.1"/>
<circle fill="none" cx="6.3" cy="-0.1" r="0.1"/>
</g></g><rect stroke="none" stroke-width="0" fill="#FFFFFF" x="0" y="0" width="0" height="0" transform="translate(36.9,28.8)"/><path stroke="#000000" fill="none" d=""/><text font-family="OpenSansCondensedLight" font-size="14pt" fill="black" transform="translate(36.9,28.8)"/><rect stroke-width="0" fill="none" width="111.5" transform="translate(-37.2,62)"/><text font-family="OpenSansCondensedLight" font-size="14pt" fill="black" transform="translate(-37.2,62)" text-anchor="middle"><tspan x="55.7" y="16.8"> 252</tspan></text><path stroke="#000000" fill="none" transform="translate(-37.2,62)" d="M 38.9 19 66.9 19"/></g><g transform="translate(643,466)"><g><g>
<g stroke="#000000" stroke-dasharray="none" fill="#FFFFFF">
    <ellipse cx="23.5" cy="28" rx="23.5" ry="28"/>
    <ellipse cx="23.5" cy="28" rx="14.7" ry="28"/>
    <ellipse cx="23.5" cy="28" rx="5.9" ry="28"/>
    <line x1="0" y1="27.7" x2="47" y2="27.7"/>
    <line x1="3" y1="14.2" x2="44" y2="14.2"/>
    <line x1="3" y1="41.8" x2="44" y2="41.8"/>
</g>
<rect x="6.8" y="10.5" fill="none" width="33.6" height="34.8"/>
<circle fill="none" cx="23.5" cy="0" r="0.1"/>
<circle fill="none" cx="35.2" cy="3.8" r="0.1"/>
<circle fill="none" cx="44" cy="14.2" r="0.1"/>
<circle fill="none" cx="47" cy="27.7" r="0.1"/>
<circle fill="none" cx="44" cy="41.8" r="0.1"/>
<circle fill="none" cx="36.3" cy="51.6" r="0.1"/>
<circle fill="none" cx="23.5" cy="56" r="0.1"/>
<circle fill="none" cx="10.7" cy="51.6" r="0.1"/>
<circle fill="none" cx="3" cy="41.9" r="0.1"/>
<circle fill="none" cx="0" cy="27.6" r="0.1"/>
<circle fill="none" cx="3" cy="14.3" r="0.1"/>
<circle fill="none" cx="11.8" cy="3.8" r="0.1"/>
</g></g><rect stroke="none" stroke-width="0" fill="#FFFFFF" x="0" y="0" width="0" height="0" transform="translate(46.9,27.6)"/><path stroke="#000000" fill="none" d=""/><text font-family="OpenSansCondensedLight" font-size="14pt" fill="black" transform="translate(46.9,27.6)"/><rect stroke-width="0" fill="none" width="141.6" transform="translate(-47.3,66.1)"/><text font-family="OpenSansCondensedLight" font-size="14pt" fill="black" transform="translate(-47.3,66.1)" text-anchor="middle"><tspan x="70.8" y="16.8"> 254</tspan></text><path stroke="#000000" fill="none" transform="translate(-47.3,66.1)" d="M 54 19 82 19"/></g><g transform="translate(717,466)"><g><g>
<g fill="#FFFFFF">
    <path d="M41,18.6C41,8.3,31.8,0,20.5,0S0,8.3,0,18.6l0,0v24.8c0,10.2,9.2,18.6,20.5,18.6s20.5,-8.3,20.5,-18.6V18.6"/>
</g>
<g stroke="#000000" stroke-dasharray="none">
    <path fill="none" d="M0,18.6L0,18.6v24.8c0,10.2,9.2,18.6,20.5,18.6s20.5,-8.3,20.5,-18.6V18.6"/>
    <ellipse fill="none" cx="20.5" cy="18.6" rx="20.5" ry="18.6"/>
</g>
<path fill="none" stroke="#000000" d="M34.5,15.1V6.4H24.6l4.1,3.5l-8.1,7.1l1.8,1.5l8.1,-7.1L34.5,15.1z"/>
<path fill="none" stroke="#000000" d="M20.5,9.9l-0.9,7.9l-9.1,0.8l4.1,-3.5L5.6,7.1l1.8,-1.5l9.1,7.9L20.5,9.9z"/>
<path fill="none" stroke="#000000" d="M20.5,27.3l0.9,-7.9l9.1,-0.8l-4.1,3.5l9.1,7.9l-1.8,1.5L24.6,23.7L20.5,27.3z"/>
<path fill="none" stroke="#000000" d="M6.5,22.1v8.7h10L12.3,27.3l8.1,-7.1L18.7,18.6l-8.1,7.1L6.5,22.1z"/>
<rect x="4.4" y="8.1" fill="none" width="31.9" height="45.3"/>
<circle fill="none" cx="20.1" cy="-0" r="0.1"/>
<circle fill="none" cx="32.8" cy="3.6" r="0.1"/>
<circle fill="none" cx="40.5" cy="14.3" r="0.1"/>
<circle fill="none" cx="41" cy="32.2" r="0.1"/>
<circle fill="none" cx="40.1" cy="49.1" r="0.1"/>
<circle fill="none" cx="32.2" cy="58.5" r="0.1"/>
<circle fill="none" cx="20.4" cy="61.9" r="0.1"/>
<circle fill="none" cx="8.1" cy="58" r="0.1"/>
<circle fill="none" cx="1" cy="48.9" r="0.1"/>
<circle fill="none" cx="0" cy="33.1" r="0.1"/>
<circle fill="none" cx="0.3" cy="15.7" r="0.1"/>
<circle fill="none" cx="7.5" cy="4.1" r="0.1"/>
</g></g><rect stroke="none" stroke-width="0" fill="#FFFFFF" x="0" y="0" width="0" height="0" transform="translate(40.9,32.1)"/><path stroke="#000000" fill="none" d=""/><text font-family="OpenSansCondensedLight" font-size="14pt" fill="black" transform="translate(40.9,32.1)"/><rect stroke-width="0" fill="none" width="123.5" transform="translate(-41.3,72)"/><text font-family="OpenSansCondensedLight" font-size="14pt" fill="black" transform="translate(-41.3,72)" text-anchor="middle"><tspan x="61.8" y="16.8"> 256</tspan></text><path stroke="#000000" fill="none" transform="translate(-41.3,72)" d="M 45 19 73 19"/></g></g><defs/></svg>